G04*
G04 #@! TF.GenerationSoftware,Altium Limited,Altium Designer,20.1.11 (218)*
G04*
G04 Layer_Color=8388736*
%FSLAX25Y25*%
%MOIN*%
G70*
G04*
G04 #@! TF.SameCoordinates,4A8DF08C-7CCE-415C-BD08-992622932B33*
G04*
G04*
G04 #@! TF.FilePolarity,Negative*
G04*
G01*
G75*
%ADD23C,0.01968*%
%ADD34R,0.02769X0.02375*%
%ADD35R,0.02375X0.02769*%
%ADD36R,0.03950X0.03950*%
%ADD37R,0.02769X0.02572*%
%ADD38R,0.03162X0.05524*%
%ADD39R,0.08280X0.11824*%
%ADD40O,0.05721X0.01784*%
%ADD41O,0.01784X0.05721*%
%ADD42R,0.03950X0.03950*%
%ADD43C,0.05524*%
%ADD44P,0.07813X4X270.0*%
G54D23*
X102756Y-31496D02*
D03*
Y125984D02*
D03*
Y50000D02*
D03*
Y44488D02*
D03*
Y-37008D02*
D03*
Y-112992D02*
D03*
X137008Y73228D02*
D03*
Y89764D02*
D03*
X137795Y80315D02*
D03*
X137008Y8268D02*
D03*
X137795Y1181D02*
D03*
X137402Y-87402D02*
D03*
X112205Y-31102D02*
D03*
X114567Y-30709D02*
D03*
X107480Y-31496D02*
D03*
X105118D02*
D03*
X109843D02*
D03*
X100394Y-31102D02*
D03*
X98032Y-30709D02*
D03*
X74803Y80315D02*
D03*
X75590Y89764D02*
D03*
Y73228D02*
D03*
X74803Y1181D02*
D03*
X75590Y8268D02*
D03*
X75197Y-87402D02*
D03*
X66142Y73228D02*
D03*
Y89764D02*
D03*
X66929Y80315D02*
D03*
X66142Y8268D02*
D03*
X66929Y1181D02*
D03*
X66535Y-87402D02*
D03*
X137402Y87402D02*
D03*
X137795Y85039D02*
D03*
Y82677D02*
D03*
X137402Y75591D02*
D03*
X137795Y77953D02*
D03*
X137402Y5906D02*
D03*
X137795Y3543D02*
D03*
X137402Y-5906D02*
D03*
X137795Y-3543D02*
D03*
Y-1181D02*
D03*
X137008Y-8268D02*
D03*
X137795Y-77953D02*
D03*
X137402Y-75590D02*
D03*
X137008Y-73228D02*
D03*
X137795Y-82677D02*
D03*
Y-80315D02*
D03*
Y-85039D02*
D03*
X137008Y-89764D02*
D03*
X114567Y125984D02*
D03*
X112205D02*
D03*
Y50394D02*
D03*
X114567Y50787D02*
D03*
Y44488D02*
D03*
X112205D02*
D03*
Y-37008D02*
D03*
X114567D02*
D03*
Y-112205D02*
D03*
X112205Y-112598D02*
D03*
X109843Y125984D02*
D03*
X105118D02*
D03*
X107480D02*
D03*
Y50000D02*
D03*
X105118D02*
D03*
X109843D02*
D03*
Y44488D02*
D03*
X105118D02*
D03*
X107480D02*
D03*
Y-37008D02*
D03*
X105118D02*
D03*
X109843D02*
D03*
Y-112992D02*
D03*
X105118D02*
D03*
X107480D02*
D03*
X98032Y125984D02*
D03*
X100394D02*
D03*
Y50394D02*
D03*
X98032Y50787D02*
D03*
Y44488D02*
D03*
X100394D02*
D03*
Y-37008D02*
D03*
X98032D02*
D03*
Y-112205D02*
D03*
X100394Y-112598D02*
D03*
X74803Y82677D02*
D03*
Y85039D02*
D03*
X75197Y87402D02*
D03*
X74803Y77953D02*
D03*
X75197Y75591D02*
D03*
X74803Y3543D02*
D03*
X75197Y5906D02*
D03*
X74803Y-1181D02*
D03*
Y-3543D02*
D03*
X75197Y-5906D02*
D03*
X75590Y-8268D02*
D03*
Y-73228D02*
D03*
X75197Y-75590D02*
D03*
X74803Y-77953D02*
D03*
Y-85039D02*
D03*
Y-80315D02*
D03*
Y-82677D02*
D03*
X75590Y-89764D02*
D03*
X66535Y87402D02*
D03*
X66929Y85039D02*
D03*
Y82677D02*
D03*
X66535Y75591D02*
D03*
X66929Y77953D02*
D03*
X66535Y5906D02*
D03*
X66929Y3543D02*
D03*
X66535Y-5906D02*
D03*
X66929Y-3543D02*
D03*
Y-1181D02*
D03*
X66142Y-8268D02*
D03*
X66929Y-77953D02*
D03*
X66535Y-75590D02*
D03*
X66142Y-73228D02*
D03*
X66929Y-82677D02*
D03*
Y-80315D02*
D03*
Y-85039D02*
D03*
X66142Y-89764D02*
D03*
X-137008D02*
D03*
X-137795Y-85039D02*
D03*
Y-80315D02*
D03*
Y-82677D02*
D03*
X-137008Y-73228D02*
D03*
X-137402Y-75590D02*
D03*
X-137795Y-77953D02*
D03*
X-137008Y-8268D02*
D03*
X-137795Y-1181D02*
D03*
Y-3543D02*
D03*
X-137402Y-5906D02*
D03*
X-137795Y3543D02*
D03*
X-137402Y5906D02*
D03*
X-137795Y77953D02*
D03*
X-137402Y75591D02*
D03*
X-137795Y82677D02*
D03*
Y85039D02*
D03*
X-137402Y87402D02*
D03*
X-114567Y-112205D02*
D03*
Y-37008D02*
D03*
Y44488D02*
D03*
Y50787D02*
D03*
Y125984D02*
D03*
X-109843Y-112992D02*
D03*
X-107480D02*
D03*
X-105118D02*
D03*
X-107480Y-37008D02*
D03*
X-105118D02*
D03*
X-109843D02*
D03*
Y44488D02*
D03*
X-107480D02*
D03*
X-105118D02*
D03*
Y50000D02*
D03*
X-107480D02*
D03*
X-109843D02*
D03*
Y125984D02*
D03*
X-107480D02*
D03*
X-105118D02*
D03*
X-98032Y-112205D02*
D03*
X-100394Y-112598D02*
D03*
X-102756Y-112992D02*
D03*
Y-37008D02*
D03*
X-100394D02*
D03*
X-98032D02*
D03*
Y44488D02*
D03*
X-102756D02*
D03*
X-100394D02*
D03*
X-102756Y50000D02*
D03*
X-100394Y50394D02*
D03*
X-98032Y50787D02*
D03*
Y125984D02*
D03*
X-102756D02*
D03*
X-100394D02*
D03*
X-75590Y-89764D02*
D03*
X-74803Y-82677D02*
D03*
Y-85039D02*
D03*
Y-80315D02*
D03*
X-75197Y-75590D02*
D03*
X-75590Y-73228D02*
D03*
X-74803Y-77953D02*
D03*
X-75590Y-8268D02*
D03*
X-75197Y-5906D02*
D03*
X-74803Y-3543D02*
D03*
Y-1181D02*
D03*
X-75197Y5906D02*
D03*
X-74803Y3543D02*
D03*
X-75197Y75591D02*
D03*
X-74803Y77953D02*
D03*
X-75197Y87402D02*
D03*
X-74803Y85039D02*
D03*
Y82677D02*
D03*
X-66142Y-89764D02*
D03*
X-66929Y-82677D02*
D03*
Y-80315D02*
D03*
Y-85039D02*
D03*
Y-77953D02*
D03*
X-66535Y-75590D02*
D03*
X-66142Y-73228D02*
D03*
Y-8268D02*
D03*
X-66535Y-5906D02*
D03*
X-66929Y-3543D02*
D03*
Y-1181D02*
D03*
X-66535Y5906D02*
D03*
X-66929Y3543D02*
D03*
X-66535Y75591D02*
D03*
X-66929Y77953D02*
D03*
X-66535Y87402D02*
D03*
X-66929Y85039D02*
D03*
Y82677D02*
D03*
X-41339Y-112598D02*
D03*
X-43701Y-112205D02*
D03*
Y-37008D02*
D03*
X-41339D02*
D03*
Y44488D02*
D03*
X-43701D02*
D03*
Y50787D02*
D03*
X-41339Y50394D02*
D03*
Y125984D02*
D03*
X-43701D02*
D03*
X-34252Y-112992D02*
D03*
X-36614D02*
D03*
Y-37008D02*
D03*
X-34252D02*
D03*
Y44488D02*
D03*
X-36614D02*
D03*
Y50000D02*
D03*
X-34252D02*
D03*
Y125984D02*
D03*
X-36614D02*
D03*
X-29528Y-112598D02*
D03*
X-27165Y-112205D02*
D03*
Y-37008D02*
D03*
X-29528D02*
D03*
Y44488D02*
D03*
X-27165D02*
D03*
Y50787D02*
D03*
X-29528Y50394D02*
D03*
Y125984D02*
D03*
X-27165D02*
D03*
X-4724Y-89764D02*
D03*
X-3937Y-85039D02*
D03*
Y-80315D02*
D03*
Y-82677D02*
D03*
X-4724Y-73228D02*
D03*
X-4331Y-75590D02*
D03*
X-3937Y-77953D02*
D03*
X-4724Y-8268D02*
D03*
X-3937Y-1181D02*
D03*
Y-3543D02*
D03*
X-4331Y-5906D02*
D03*
X-3937Y3543D02*
D03*
X-4331Y5906D02*
D03*
X-3937Y77953D02*
D03*
X-4331Y75591D02*
D03*
X-3937Y82677D02*
D03*
Y85039D02*
D03*
X-4331Y87402D02*
D03*
X4724Y-89764D02*
D03*
X3937Y-82677D02*
D03*
Y-80315D02*
D03*
Y-85039D02*
D03*
Y-77953D02*
D03*
X4331Y-75590D02*
D03*
X4724Y-73228D02*
D03*
Y-8268D02*
D03*
X4331Y-5906D02*
D03*
X3937Y-3543D02*
D03*
Y-1181D02*
D03*
X4331Y5906D02*
D03*
X3937Y3543D02*
D03*
X4331Y75591D02*
D03*
X3937Y77953D02*
D03*
X4331Y87402D02*
D03*
X3937Y85039D02*
D03*
Y82677D02*
D03*
X29528Y-112598D02*
D03*
X27165Y-112205D02*
D03*
Y-37008D02*
D03*
X29528D02*
D03*
Y44488D02*
D03*
X27165D02*
D03*
Y50787D02*
D03*
X29528Y50394D02*
D03*
Y125984D02*
D03*
X27165D02*
D03*
X36614Y-112992D02*
D03*
X34252D02*
D03*
X38976D02*
D03*
Y-37008D02*
D03*
X34252D02*
D03*
X36614D02*
D03*
Y44488D02*
D03*
X34252D02*
D03*
X38976D02*
D03*
Y50000D02*
D03*
X34252D02*
D03*
X36614D02*
D03*
Y125984D02*
D03*
X34252D02*
D03*
X38976D02*
D03*
X41339Y-112598D02*
D03*
X43701Y-112205D02*
D03*
Y-37008D02*
D03*
X41339D02*
D03*
Y44488D02*
D03*
X43701D02*
D03*
Y50787D02*
D03*
X41339Y50394D02*
D03*
Y125984D02*
D03*
X43701D02*
D03*
X66142Y-89764D02*
D03*
X66929Y-85039D02*
D03*
Y-80315D02*
D03*
Y-82677D02*
D03*
X66142Y-73228D02*
D03*
X66535Y-75590D02*
D03*
X66929Y-77953D02*
D03*
X66142Y-8268D02*
D03*
X66929Y-1181D02*
D03*
Y-3543D02*
D03*
X66535Y-5906D02*
D03*
X66929Y3543D02*
D03*
X66535Y5906D02*
D03*
X66929Y77953D02*
D03*
X66535Y75591D02*
D03*
X66929Y82677D02*
D03*
Y85039D02*
D03*
X66535Y87402D02*
D03*
X-137402Y-87402D02*
D03*
X-137795Y1181D02*
D03*
X-137008Y8268D02*
D03*
X-137795Y80315D02*
D03*
X-137008Y89764D02*
D03*
Y73228D02*
D03*
X-114567Y-30709D02*
D03*
X-105118Y-31496D02*
D03*
X-107480D02*
D03*
X-109843D02*
D03*
X-102756D02*
D03*
X-100394Y-31102D02*
D03*
X-98032Y-30709D02*
D03*
X-75197Y-87402D02*
D03*
X-75590Y8268D02*
D03*
X-74803Y1181D02*
D03*
X-75590Y73228D02*
D03*
Y89764D02*
D03*
X-74803Y80315D02*
D03*
X-66535Y-87402D02*
D03*
X-66142Y8268D02*
D03*
X-66929Y1181D02*
D03*
X-66142Y73228D02*
D03*
Y89764D02*
D03*
X-66929Y80315D02*
D03*
X-43701Y-30709D02*
D03*
X-41339Y-31102D02*
D03*
X-36614Y-31496D02*
D03*
X-34252D02*
D03*
X-27165Y-30709D02*
D03*
X-29528Y-31102D02*
D03*
X-4331Y-87402D02*
D03*
X-3937Y1181D02*
D03*
X-4724Y8268D02*
D03*
X-3937Y80315D02*
D03*
X-4724Y89764D02*
D03*
Y73228D02*
D03*
X4331Y-87402D02*
D03*
X4724Y8268D02*
D03*
X3937Y1181D02*
D03*
X4724Y73228D02*
D03*
Y89764D02*
D03*
X3937Y80315D02*
D03*
X27165Y-30709D02*
D03*
X29528Y-31102D02*
D03*
X38976Y-31496D02*
D03*
X34252D02*
D03*
X36614D02*
D03*
X43701Y-30709D02*
D03*
X41339Y-31102D02*
D03*
X66535Y-87402D02*
D03*
X66929Y1181D02*
D03*
X66142Y8268D02*
D03*
X66929Y80315D02*
D03*
X66142Y89764D02*
D03*
Y73228D02*
D03*
X-112205Y-112598D02*
D03*
Y-37008D02*
D03*
Y44488D02*
D03*
Y50394D02*
D03*
Y125984D02*
D03*
X-31890Y-112992D02*
D03*
X-38976D02*
D03*
Y-37008D02*
D03*
X-31890D02*
D03*
Y44488D02*
D03*
X-38976D02*
D03*
Y50000D02*
D03*
X-31890D02*
D03*
Y125984D02*
D03*
X-38976D02*
D03*
X31890Y-112992D02*
D03*
Y-37008D02*
D03*
Y44488D02*
D03*
Y50000D02*
D03*
Y125984D02*
D03*
X-112205Y-31102D02*
D03*
X-38976Y-31496D02*
D03*
X-31890D02*
D03*
X31890D02*
D03*
G54D34*
X85039Y-81890D02*
D03*
Y-78740D02*
D03*
X81496Y-86614D02*
D03*
Y-83465D02*
D03*
X85039Y81102D02*
D03*
Y84252D02*
D03*
X81496Y76378D02*
D03*
Y79528D02*
D03*
X85039Y-394D02*
D03*
Y2756D02*
D03*
X81496Y-5118D02*
D03*
Y-1969D02*
D03*
X-56693Y-394D02*
D03*
Y2756D02*
D03*
X-60236Y-5118D02*
D03*
Y-1969D02*
D03*
X-56693Y81102D02*
D03*
Y84252D02*
D03*
X-60236Y76378D02*
D03*
Y79528D02*
D03*
X-56693Y-81890D02*
D03*
Y-78740D02*
D03*
X-60236Y-86614D02*
D03*
Y-83465D02*
D03*
X-127559Y-394D02*
D03*
Y2756D02*
D03*
X-131102Y-5118D02*
D03*
Y-1969D02*
D03*
X14173Y-394D02*
D03*
Y2756D02*
D03*
X10630Y-5118D02*
D03*
Y-1969D02*
D03*
X-127559Y81102D02*
D03*
Y84252D02*
D03*
X-131102Y76378D02*
D03*
Y79528D02*
D03*
X14173Y81102D02*
D03*
Y84252D02*
D03*
X10630Y76378D02*
D03*
Y79528D02*
D03*
X-127559Y-81890D02*
D03*
Y-78740D02*
D03*
X-131102Y-86614D02*
D03*
Y-83465D02*
D03*
X14173Y-81890D02*
D03*
Y-78740D02*
D03*
X10630Y-86614D02*
D03*
Y-83465D02*
D03*
G54D35*
X118110Y-102362D02*
D03*
X114961D02*
D03*
X94882Y-61024D02*
D03*
X98032D02*
D03*
X118110Y60630D02*
D03*
X114961D02*
D03*
X94882Y101969D02*
D03*
X98032D02*
D03*
X118110Y-20866D02*
D03*
X114961D02*
D03*
X94882Y20472D02*
D03*
X98032D02*
D03*
X-23622Y-20866D02*
D03*
X-26772D02*
D03*
X-46850Y20472D02*
D03*
X-43701D02*
D03*
X-23622Y60630D02*
D03*
X-26772D02*
D03*
X-46850Y101969D02*
D03*
X-43701D02*
D03*
X-23622Y-102362D02*
D03*
X-26772D02*
D03*
X-46850Y-61024D02*
D03*
X-43701D02*
D03*
X-94488Y-20866D02*
D03*
X-97638D02*
D03*
X-117717Y20472D02*
D03*
X-114567D02*
D03*
X47244Y-20866D02*
D03*
X44094D02*
D03*
X24016Y20472D02*
D03*
X27165D02*
D03*
X-94488Y60630D02*
D03*
X-97638D02*
D03*
X-117717Y101969D02*
D03*
X-114567D02*
D03*
X47244Y60630D02*
D03*
X44094D02*
D03*
X24016Y101969D02*
D03*
X27165D02*
D03*
X-94488Y-102362D02*
D03*
X-97638D02*
D03*
X-117717Y-61024D02*
D03*
X-114567D02*
D03*
X47244Y-102362D02*
D03*
X44094D02*
D03*
X24016Y-61024D02*
D03*
X27165D02*
D03*
G54D36*
X127276Y-98472D02*
D03*
X121370D02*
D03*
X84823Y-63972D02*
D03*
X90728D02*
D03*
X127276Y64520D02*
D03*
X121370D02*
D03*
X84823Y99020D02*
D03*
X90728D02*
D03*
X127276Y-16976D02*
D03*
X121370D02*
D03*
X84823Y17524D02*
D03*
X90728D02*
D03*
X-14457Y-16976D02*
D03*
X-20362D02*
D03*
X-56910Y17524D02*
D03*
X-51004D02*
D03*
X-14457Y64520D02*
D03*
X-20362D02*
D03*
X-56910Y99020D02*
D03*
X-51004D02*
D03*
X-14457Y-98472D02*
D03*
X-20362D02*
D03*
X-56910Y-63972D02*
D03*
X-51004D02*
D03*
X-85323Y-16976D02*
D03*
X-91228D02*
D03*
X-127776Y17524D02*
D03*
X-121870D02*
D03*
X56409Y-16976D02*
D03*
X50504D02*
D03*
X13957Y17524D02*
D03*
X19862D02*
D03*
X-85323Y64520D02*
D03*
X-91228D02*
D03*
X-127776Y99020D02*
D03*
X-121870D02*
D03*
X56409Y64520D02*
D03*
X50504D02*
D03*
X13957Y99020D02*
D03*
X19862D02*
D03*
X-85323Y-98472D02*
D03*
X-91228D02*
D03*
X-127776Y-63972D02*
D03*
X-121870D02*
D03*
X56409Y-98472D02*
D03*
X50504D02*
D03*
X13957Y-63972D02*
D03*
X19862D02*
D03*
G54D37*
X131988Y-79528D02*
D03*
X134941D02*
D03*
X131988Y83465D02*
D03*
X134941D02*
D03*
X131988Y1969D02*
D03*
X134941D02*
D03*
X-9744D02*
D03*
X-6791D02*
D03*
X-9744Y83465D02*
D03*
X-6791D02*
D03*
X-9744Y-79528D02*
D03*
X-6791D02*
D03*
X-80610Y1969D02*
D03*
X-77658D02*
D03*
X61122D02*
D03*
X64075D02*
D03*
X-80610Y83465D02*
D03*
X-77658D02*
D03*
X61122D02*
D03*
X64075D02*
D03*
X-80610Y-79528D02*
D03*
X-77658D02*
D03*
X61122D02*
D03*
X64075D02*
D03*
G54D38*
X103839Y-55905D02*
D03*
X108760D02*
D03*
X113681D02*
D03*
X98917D02*
D03*
X103839Y107087D02*
D03*
X108760D02*
D03*
X113681D02*
D03*
X98917D02*
D03*
X103839Y25591D02*
D03*
X108760D02*
D03*
X113681D02*
D03*
X98917D02*
D03*
X-37894D02*
D03*
X-32972D02*
D03*
X-28051D02*
D03*
X-42815D02*
D03*
X-37894Y107087D02*
D03*
X-32972D02*
D03*
X-28051D02*
D03*
X-42815D02*
D03*
X-37894Y-55905D02*
D03*
X-32972D02*
D03*
X-28051D02*
D03*
X-42815D02*
D03*
X-108760Y25591D02*
D03*
X-103839D02*
D03*
X-98917D02*
D03*
X-113681D02*
D03*
X32972D02*
D03*
X37894D02*
D03*
X42815D02*
D03*
X28051D02*
D03*
X-108760Y107087D02*
D03*
X-103839D02*
D03*
X-98917D02*
D03*
X-113681D02*
D03*
X32972D02*
D03*
X37894D02*
D03*
X42815D02*
D03*
X28051D02*
D03*
X-108760Y-55905D02*
D03*
X-103839D02*
D03*
X-98917D02*
D03*
X-113681D02*
D03*
X32972D02*
D03*
X37894D02*
D03*
X42815D02*
D03*
X28051D02*
D03*
G54D39*
X88878Y-44488D02*
D03*
X123721D02*
D03*
X88878Y118504D02*
D03*
X123721D02*
D03*
X88878Y37008D02*
D03*
X123721D02*
D03*
X-52854D02*
D03*
X-18012D02*
D03*
X-52854Y118504D02*
D03*
X-18012D02*
D03*
X-52854Y-44488D02*
D03*
X-18012D02*
D03*
X-123721Y37008D02*
D03*
X-88878D02*
D03*
X18012D02*
D03*
X52854D02*
D03*
X-123721Y118504D02*
D03*
X-88878D02*
D03*
X18012D02*
D03*
X52854D02*
D03*
X-123721Y-44488D02*
D03*
X-88878D02*
D03*
X18012D02*
D03*
X52854D02*
D03*
G54D40*
X90059Y-70669D02*
D03*
Y-72638D02*
D03*
Y-74606D02*
D03*
Y-76575D02*
D03*
Y-78543D02*
D03*
Y-80512D02*
D03*
Y-82480D02*
D03*
Y-84449D02*
D03*
Y-86417D02*
D03*
Y-88386D02*
D03*
Y-90354D02*
D03*
Y-92323D02*
D03*
X122539D02*
D03*
Y-90354D02*
D03*
Y-88386D02*
D03*
Y-86417D02*
D03*
Y-84449D02*
D03*
Y-82480D02*
D03*
Y-80512D02*
D03*
Y-78543D02*
D03*
Y-76575D02*
D03*
Y-74606D02*
D03*
Y-72638D02*
D03*
Y-70669D02*
D03*
X90059Y92323D02*
D03*
Y90354D02*
D03*
Y88386D02*
D03*
Y86417D02*
D03*
Y84449D02*
D03*
Y82480D02*
D03*
Y80512D02*
D03*
Y78543D02*
D03*
Y76575D02*
D03*
Y74606D02*
D03*
Y72638D02*
D03*
Y70669D02*
D03*
X122539D02*
D03*
Y72638D02*
D03*
Y74606D02*
D03*
Y76575D02*
D03*
Y78543D02*
D03*
Y80512D02*
D03*
Y82480D02*
D03*
Y84449D02*
D03*
Y86417D02*
D03*
Y88386D02*
D03*
Y90354D02*
D03*
Y92323D02*
D03*
X90059Y10827D02*
D03*
Y8858D02*
D03*
Y6890D02*
D03*
Y4921D02*
D03*
Y2953D02*
D03*
Y984D02*
D03*
Y-984D02*
D03*
Y-2953D02*
D03*
Y-4921D02*
D03*
Y-6890D02*
D03*
Y-8858D02*
D03*
Y-10827D02*
D03*
X122539D02*
D03*
Y-8858D02*
D03*
Y-6890D02*
D03*
Y-4921D02*
D03*
Y-2953D02*
D03*
Y-984D02*
D03*
Y984D02*
D03*
Y2953D02*
D03*
Y4921D02*
D03*
Y6890D02*
D03*
Y8858D02*
D03*
Y10827D02*
D03*
X-51673D02*
D03*
Y8858D02*
D03*
Y6890D02*
D03*
Y4921D02*
D03*
Y2953D02*
D03*
Y984D02*
D03*
Y-984D02*
D03*
Y-2953D02*
D03*
Y-4921D02*
D03*
Y-6890D02*
D03*
Y-8858D02*
D03*
Y-10827D02*
D03*
X-19193D02*
D03*
Y-8858D02*
D03*
Y-6890D02*
D03*
Y-4921D02*
D03*
Y-2953D02*
D03*
Y-984D02*
D03*
Y984D02*
D03*
Y2953D02*
D03*
Y4921D02*
D03*
Y6890D02*
D03*
Y8858D02*
D03*
Y10827D02*
D03*
X-51673Y92323D02*
D03*
Y90354D02*
D03*
Y88386D02*
D03*
Y86417D02*
D03*
Y84449D02*
D03*
Y82480D02*
D03*
Y80512D02*
D03*
Y78543D02*
D03*
Y76575D02*
D03*
Y74606D02*
D03*
Y72638D02*
D03*
Y70669D02*
D03*
X-19193D02*
D03*
Y72638D02*
D03*
Y74606D02*
D03*
Y76575D02*
D03*
Y78543D02*
D03*
Y80512D02*
D03*
Y82480D02*
D03*
Y84449D02*
D03*
Y86417D02*
D03*
Y88386D02*
D03*
Y90354D02*
D03*
Y92323D02*
D03*
X-51673Y-70669D02*
D03*
Y-72638D02*
D03*
Y-74606D02*
D03*
Y-76575D02*
D03*
Y-78543D02*
D03*
Y-80512D02*
D03*
Y-82480D02*
D03*
Y-84449D02*
D03*
Y-86417D02*
D03*
Y-88386D02*
D03*
Y-90354D02*
D03*
Y-92323D02*
D03*
X-19193D02*
D03*
Y-90354D02*
D03*
Y-88386D02*
D03*
Y-86417D02*
D03*
Y-84449D02*
D03*
Y-82480D02*
D03*
Y-80512D02*
D03*
Y-78543D02*
D03*
Y-76575D02*
D03*
Y-74606D02*
D03*
Y-72638D02*
D03*
Y-70669D02*
D03*
X-122539Y10827D02*
D03*
Y8858D02*
D03*
Y6890D02*
D03*
Y4921D02*
D03*
Y2953D02*
D03*
Y984D02*
D03*
Y-984D02*
D03*
Y-2953D02*
D03*
Y-4921D02*
D03*
Y-6890D02*
D03*
Y-8858D02*
D03*
Y-10827D02*
D03*
X-90059D02*
D03*
Y-8858D02*
D03*
Y-6890D02*
D03*
Y-4921D02*
D03*
Y-2953D02*
D03*
Y-984D02*
D03*
Y984D02*
D03*
Y2953D02*
D03*
Y4921D02*
D03*
Y6890D02*
D03*
Y8858D02*
D03*
Y10827D02*
D03*
X19193D02*
D03*
Y8858D02*
D03*
Y6890D02*
D03*
Y4921D02*
D03*
Y2953D02*
D03*
Y984D02*
D03*
Y-984D02*
D03*
Y-2953D02*
D03*
Y-4921D02*
D03*
Y-6890D02*
D03*
Y-8858D02*
D03*
Y-10827D02*
D03*
X51673D02*
D03*
Y-8858D02*
D03*
Y-6890D02*
D03*
Y-4921D02*
D03*
Y-2953D02*
D03*
Y-984D02*
D03*
Y984D02*
D03*
Y2953D02*
D03*
Y4921D02*
D03*
Y6890D02*
D03*
Y8858D02*
D03*
Y10827D02*
D03*
X-122539Y92323D02*
D03*
Y90354D02*
D03*
Y88386D02*
D03*
Y86417D02*
D03*
Y84449D02*
D03*
Y82480D02*
D03*
Y80512D02*
D03*
Y78543D02*
D03*
Y76575D02*
D03*
Y74606D02*
D03*
Y72638D02*
D03*
Y70669D02*
D03*
X-90059D02*
D03*
Y72638D02*
D03*
Y74606D02*
D03*
Y76575D02*
D03*
Y78543D02*
D03*
Y80512D02*
D03*
Y82480D02*
D03*
Y84449D02*
D03*
Y86417D02*
D03*
Y88386D02*
D03*
Y90354D02*
D03*
Y92323D02*
D03*
X19193D02*
D03*
Y90354D02*
D03*
Y88386D02*
D03*
Y86417D02*
D03*
Y84449D02*
D03*
Y82480D02*
D03*
Y80512D02*
D03*
Y78543D02*
D03*
Y76575D02*
D03*
Y74606D02*
D03*
Y72638D02*
D03*
Y70669D02*
D03*
X51673D02*
D03*
Y72638D02*
D03*
Y74606D02*
D03*
Y76575D02*
D03*
Y78543D02*
D03*
Y80512D02*
D03*
Y82480D02*
D03*
Y84449D02*
D03*
Y86417D02*
D03*
Y88386D02*
D03*
Y90354D02*
D03*
Y92323D02*
D03*
X-122539Y-70669D02*
D03*
Y-72638D02*
D03*
Y-74606D02*
D03*
Y-76575D02*
D03*
Y-78543D02*
D03*
Y-80512D02*
D03*
Y-82480D02*
D03*
Y-84449D02*
D03*
Y-86417D02*
D03*
Y-88386D02*
D03*
Y-90354D02*
D03*
Y-92323D02*
D03*
X-90059D02*
D03*
Y-90354D02*
D03*
Y-88386D02*
D03*
Y-86417D02*
D03*
Y-84449D02*
D03*
Y-82480D02*
D03*
Y-80512D02*
D03*
Y-78543D02*
D03*
Y-76575D02*
D03*
Y-74606D02*
D03*
Y-72638D02*
D03*
Y-70669D02*
D03*
X19193D02*
D03*
Y-72638D02*
D03*
Y-74606D02*
D03*
Y-76575D02*
D03*
Y-78543D02*
D03*
Y-80512D02*
D03*
Y-82480D02*
D03*
Y-84449D02*
D03*
Y-86417D02*
D03*
Y-88386D02*
D03*
Y-90354D02*
D03*
Y-92323D02*
D03*
X51673D02*
D03*
Y-90354D02*
D03*
Y-88386D02*
D03*
Y-86417D02*
D03*
Y-84449D02*
D03*
Y-82480D02*
D03*
Y-80512D02*
D03*
Y-78543D02*
D03*
Y-76575D02*
D03*
Y-74606D02*
D03*
Y-72638D02*
D03*
Y-70669D02*
D03*
G54D41*
X95472Y-97736D02*
D03*
X97441D02*
D03*
X99409D02*
D03*
X101378D02*
D03*
X103347D02*
D03*
X105315D02*
D03*
X107283D02*
D03*
X109252D02*
D03*
X111221D02*
D03*
X113189D02*
D03*
X115157D02*
D03*
X117126D02*
D03*
Y-65256D02*
D03*
X115157D02*
D03*
X113189D02*
D03*
X111221D02*
D03*
X109252D02*
D03*
X107283D02*
D03*
X105315D02*
D03*
X103347D02*
D03*
X101378D02*
D03*
X99409D02*
D03*
X97441D02*
D03*
X95472D02*
D03*
Y65256D02*
D03*
X97441D02*
D03*
X99409D02*
D03*
X101378D02*
D03*
X103347D02*
D03*
X105315D02*
D03*
X107283D02*
D03*
X109252D02*
D03*
X111221D02*
D03*
X113189D02*
D03*
X115157D02*
D03*
X117126D02*
D03*
Y97736D02*
D03*
X115157D02*
D03*
X113189D02*
D03*
X111221D02*
D03*
X109252D02*
D03*
X107283D02*
D03*
X105315D02*
D03*
X103347D02*
D03*
X101378D02*
D03*
X99409D02*
D03*
X97441D02*
D03*
X95472D02*
D03*
Y-16240D02*
D03*
X97441D02*
D03*
X99409D02*
D03*
X101378D02*
D03*
X103347D02*
D03*
X105315D02*
D03*
X107283D02*
D03*
X109252D02*
D03*
X111221D02*
D03*
X113189D02*
D03*
X115157D02*
D03*
X117126D02*
D03*
Y16240D02*
D03*
X115157D02*
D03*
X113189D02*
D03*
X111221D02*
D03*
X109252D02*
D03*
X107283D02*
D03*
X105315D02*
D03*
X103347D02*
D03*
X101378D02*
D03*
X99409D02*
D03*
X97441D02*
D03*
X95472D02*
D03*
X-46260Y-16240D02*
D03*
X-44291D02*
D03*
X-42323D02*
D03*
X-40354D02*
D03*
X-38386D02*
D03*
X-36417D02*
D03*
X-34449D02*
D03*
X-32480D02*
D03*
X-30512D02*
D03*
X-28543D02*
D03*
X-26575D02*
D03*
X-24606D02*
D03*
Y16240D02*
D03*
X-26575D02*
D03*
X-28543D02*
D03*
X-30512D02*
D03*
X-32480D02*
D03*
X-34449D02*
D03*
X-36417D02*
D03*
X-38386D02*
D03*
X-40354D02*
D03*
X-42323D02*
D03*
X-44291D02*
D03*
X-46260D02*
D03*
Y65256D02*
D03*
X-44291D02*
D03*
X-42323D02*
D03*
X-40354D02*
D03*
X-38386D02*
D03*
X-36417D02*
D03*
X-34449D02*
D03*
X-32480D02*
D03*
X-30512D02*
D03*
X-28543D02*
D03*
X-26575D02*
D03*
X-24606D02*
D03*
Y97736D02*
D03*
X-26575D02*
D03*
X-28543D02*
D03*
X-30512D02*
D03*
X-32480D02*
D03*
X-34449D02*
D03*
X-36417D02*
D03*
X-38386D02*
D03*
X-40354D02*
D03*
X-42323D02*
D03*
X-44291D02*
D03*
X-46260D02*
D03*
Y-97736D02*
D03*
X-44291D02*
D03*
X-42323D02*
D03*
X-40354D02*
D03*
X-38386D02*
D03*
X-36417D02*
D03*
X-34449D02*
D03*
X-32480D02*
D03*
X-30512D02*
D03*
X-28543D02*
D03*
X-26575D02*
D03*
X-24606D02*
D03*
Y-65256D02*
D03*
X-26575D02*
D03*
X-28543D02*
D03*
X-30512D02*
D03*
X-32480D02*
D03*
X-34449D02*
D03*
X-36417D02*
D03*
X-38386D02*
D03*
X-40354D02*
D03*
X-42323D02*
D03*
X-44291D02*
D03*
X-46260D02*
D03*
X-117126Y-16240D02*
D03*
X-115157D02*
D03*
X-113189D02*
D03*
X-111221D02*
D03*
X-109252D02*
D03*
X-107283D02*
D03*
X-105315D02*
D03*
X-103347D02*
D03*
X-101378D02*
D03*
X-99410D02*
D03*
X-97441D02*
D03*
X-95472D02*
D03*
Y16240D02*
D03*
X-97441D02*
D03*
X-99410D02*
D03*
X-101378D02*
D03*
X-103347D02*
D03*
X-105315D02*
D03*
X-107283D02*
D03*
X-109252D02*
D03*
X-111221D02*
D03*
X-113189D02*
D03*
X-115157D02*
D03*
X-117126D02*
D03*
X24606Y-16240D02*
D03*
X26575D02*
D03*
X28543D02*
D03*
X30512D02*
D03*
X32480D02*
D03*
X34449D02*
D03*
X36417D02*
D03*
X38386D02*
D03*
X40354D02*
D03*
X42323D02*
D03*
X44291D02*
D03*
X46260D02*
D03*
Y16240D02*
D03*
X44291D02*
D03*
X42323D02*
D03*
X40354D02*
D03*
X38386D02*
D03*
X36417D02*
D03*
X34449D02*
D03*
X32480D02*
D03*
X30512D02*
D03*
X28543D02*
D03*
X26575D02*
D03*
X24606D02*
D03*
X-117126Y65256D02*
D03*
X-115157D02*
D03*
X-113189D02*
D03*
X-111221D02*
D03*
X-109252D02*
D03*
X-107283D02*
D03*
X-105315D02*
D03*
X-103347D02*
D03*
X-101378D02*
D03*
X-99410D02*
D03*
X-97441D02*
D03*
X-95472D02*
D03*
Y97736D02*
D03*
X-97441D02*
D03*
X-99410D02*
D03*
X-101378D02*
D03*
X-103347D02*
D03*
X-105315D02*
D03*
X-107283D02*
D03*
X-109252D02*
D03*
X-111221D02*
D03*
X-113189D02*
D03*
X-115157D02*
D03*
X-117126D02*
D03*
X24606Y65256D02*
D03*
X26575D02*
D03*
X28543D02*
D03*
X30512D02*
D03*
X32480D02*
D03*
X34449D02*
D03*
X36417D02*
D03*
X38386D02*
D03*
X40354D02*
D03*
X42323D02*
D03*
X44291D02*
D03*
X46260D02*
D03*
Y97736D02*
D03*
X44291D02*
D03*
X42323D02*
D03*
X40354D02*
D03*
X38386D02*
D03*
X36417D02*
D03*
X34449D02*
D03*
X32480D02*
D03*
X30512D02*
D03*
X28543D02*
D03*
X26575D02*
D03*
X24606D02*
D03*
X-117126Y-97736D02*
D03*
X-115157D02*
D03*
X-113189D02*
D03*
X-111221D02*
D03*
X-109252D02*
D03*
X-107283D02*
D03*
X-105315D02*
D03*
X-103347D02*
D03*
X-101378D02*
D03*
X-99410D02*
D03*
X-97441D02*
D03*
X-95472D02*
D03*
Y-65256D02*
D03*
X-97441D02*
D03*
X-99410D02*
D03*
X-101378D02*
D03*
X-103347D02*
D03*
X-105315D02*
D03*
X-107283D02*
D03*
X-109252D02*
D03*
X-111221D02*
D03*
X-113189D02*
D03*
X-115157D02*
D03*
X-117126D02*
D03*
X24606Y-97736D02*
D03*
X26575D02*
D03*
X28543D02*
D03*
X30512D02*
D03*
X32480D02*
D03*
X34449D02*
D03*
X36417D02*
D03*
X38386D02*
D03*
X40354D02*
D03*
X42323D02*
D03*
X44291D02*
D03*
X46260D02*
D03*
Y-65256D02*
D03*
X44291D02*
D03*
X42323D02*
D03*
X40354D02*
D03*
X38386D02*
D03*
X36417D02*
D03*
X34449D02*
D03*
X32480D02*
D03*
X30512D02*
D03*
X28543D02*
D03*
X26575D02*
D03*
X24606D02*
D03*
G54D42*
X128347Y-79921D02*
D03*
Y-85827D02*
D03*
Y83071D02*
D03*
Y77165D02*
D03*
Y1575D02*
D03*
Y-4331D02*
D03*
X-13386Y1575D02*
D03*
Y-4331D02*
D03*
Y83071D02*
D03*
Y77165D02*
D03*
Y-79921D02*
D03*
Y-85827D02*
D03*
X-84252Y1575D02*
D03*
Y-4331D02*
D03*
X57480Y1575D02*
D03*
Y-4331D02*
D03*
X-84252Y83071D02*
D03*
Y77165D02*
D03*
X57480Y83071D02*
D03*
Y77165D02*
D03*
X-84252Y-79921D02*
D03*
Y-85827D02*
D03*
X57480Y-79921D02*
D03*
Y-85827D02*
D03*
G54D43*
X129921Y-92913D02*
D03*
X122835Y-103543D02*
D03*
X82677Y-92913D02*
D03*
X89764Y-103543D02*
D03*
X131488Y-70465D02*
D03*
X129921Y70079D02*
D03*
X122835Y59449D02*
D03*
X82677Y70079D02*
D03*
X89764Y59449D02*
D03*
X131488Y92528D02*
D03*
X129921Y-11417D02*
D03*
X122835Y-22047D02*
D03*
X82677Y-11417D02*
D03*
X89764Y-22047D02*
D03*
X131488Y11031D02*
D03*
X-11811Y-11417D02*
D03*
X-18898Y-22047D02*
D03*
X-59055Y-11417D02*
D03*
X-51968Y-22047D02*
D03*
X-10244Y11031D02*
D03*
X-11811Y70079D02*
D03*
X-18898Y59449D02*
D03*
X-59055Y70079D02*
D03*
X-51968Y59449D02*
D03*
X-10244Y92528D02*
D03*
X-11811Y-92913D02*
D03*
X-18898Y-103543D02*
D03*
X-59055Y-92913D02*
D03*
X-51968Y-103543D02*
D03*
X-10244Y-70465D02*
D03*
X-82677Y-11417D02*
D03*
X-89764Y-22047D02*
D03*
X-129921Y-11417D02*
D03*
X-122835Y-22047D02*
D03*
X-81110Y11031D02*
D03*
X59055Y-11417D02*
D03*
X51968Y-22047D02*
D03*
X11811Y-11417D02*
D03*
X18898Y-22047D02*
D03*
X60622Y11031D02*
D03*
X-82677Y70079D02*
D03*
X-89764Y59449D02*
D03*
X-129921Y70079D02*
D03*
X-122835Y59449D02*
D03*
X-81110Y92528D02*
D03*
X59055Y70079D02*
D03*
X51968Y59449D02*
D03*
X11811Y70079D02*
D03*
X18898Y59449D02*
D03*
X60622Y92528D02*
D03*
X-82677Y-92913D02*
D03*
X-89764Y-103543D02*
D03*
X-129921Y-92913D02*
D03*
X-122835Y-103543D02*
D03*
X-81110Y-70465D02*
D03*
X59055Y-92913D02*
D03*
X51968Y-103543D02*
D03*
X11811Y-92913D02*
D03*
X18898Y-103543D02*
D03*
X60622Y-70465D02*
D03*
G54D44*
X124417Y-63394D02*
D03*
Y99598D02*
D03*
Y18102D02*
D03*
X-17315D02*
D03*
Y99598D02*
D03*
Y-63394D02*
D03*
X-88181Y18102D02*
D03*
X53551D02*
D03*
X-88181Y99598D02*
D03*
X53551D02*
D03*
X-88181Y-63394D02*
D03*
X53551D02*
D03*
M02*
