G04*
G04 #@! TF.GenerationSoftware,Altium Limited,Altium Designer,20.1.11 (218)*
G04*
G04 Layer_Color=16777215*
%FSLAX25Y25*%
%MOIN*%
G70*
G04*
G04 #@! TF.SameCoordinates,4A8DF08C-7CCE-415C-BD08-992622932B33*
G04*
G04*
G04 #@! TF.FilePolarity,Positive*
G04*
G01*
G75*
%ADD31C,0.00984*%
%ADD32C,0.02362*%
%ADD33C,0.00787*%
G54D31*
X90551Y-68012D02*
X89813Y-67586D01*
Y-68438D01*
X90551Y-68012D01*
Y94980D02*
X89813Y95407D01*
Y94554D01*
X90551Y94980D01*
Y13484D02*
X89813Y13911D01*
Y13058D01*
X90551Y13484D01*
X-51181D02*
X-51919Y13911D01*
Y13058D01*
X-51181Y13484D01*
Y94980D02*
X-51919Y95407D01*
Y94554D01*
X-51181Y94980D01*
Y-68012D02*
X-51919Y-67586D01*
Y-68438D01*
X-51181Y-68012D01*
X-122047Y13484D02*
X-122785Y13911D01*
Y13058D01*
X-122047Y13484D01*
X19685D02*
X18947Y13911D01*
Y13058D01*
X19685Y13484D01*
X-122047Y94980D02*
X-122785Y95407D01*
Y94554D01*
X-122047Y94980D01*
X19685D02*
X18947Y95407D01*
Y94554D01*
X19685Y94980D01*
X-122047Y-68012D02*
X-122785Y-67586D01*
Y-68438D01*
X-122047Y-68012D01*
X19685D02*
X18947Y-67586D01*
Y-68438D01*
X19685Y-68012D01*
G54D32*
X99213Y-73228D02*
X98768Y-72305D01*
X97769Y-72077D01*
X96967Y-72716D01*
Y-73741D01*
X97769Y-74380D01*
X98768Y-74152D01*
X99213Y-73228D01*
Y89764D02*
X98768Y90687D01*
X97769Y90915D01*
X96967Y90276D01*
Y89251D01*
X97769Y88612D01*
X98768Y88840D01*
X99213Y89764D01*
Y8268D02*
X98768Y9191D01*
X97769Y9419D01*
X96967Y8780D01*
Y7755D01*
X97769Y7116D01*
X98768Y7344D01*
X99213Y8268D01*
X-42520D02*
X-42964Y9191D01*
X-43964Y9419D01*
X-44765Y8780D01*
Y7755D01*
X-43964Y7116D01*
X-42964Y7344D01*
X-42520Y8268D01*
Y89764D02*
X-42964Y90687D01*
X-43964Y90915D01*
X-44765Y90276D01*
Y89251D01*
X-43964Y88612D01*
X-42964Y88840D01*
X-42520Y89764D01*
Y-73228D02*
X-42964Y-72305D01*
X-43964Y-72077D01*
X-44765Y-72716D01*
Y-73741D01*
X-43964Y-74380D01*
X-42964Y-74152D01*
X-42520Y-73228D01*
X-113386Y8268D02*
X-113830Y9191D01*
X-114830Y9419D01*
X-115631Y8780D01*
Y7755D01*
X-114830Y7116D01*
X-113830Y7344D01*
X-113386Y8268D01*
X28346D02*
X27902Y9191D01*
X26902Y9419D01*
X26101Y8780D01*
Y7755D01*
X26902Y7116D01*
X27902Y7344D01*
X28346Y8268D01*
X-113386Y89764D02*
X-113830Y90687D01*
X-114830Y90915D01*
X-115631Y90276D01*
Y89251D01*
X-114830Y88612D01*
X-113830Y88840D01*
X-113386Y89764D01*
X28346D02*
X27902Y90687D01*
X26902Y90915D01*
X26101Y90276D01*
Y89251D01*
X26902Y88612D01*
X27902Y88840D01*
X28346Y89764D01*
X-113386Y-73228D02*
X-113830Y-72305D01*
X-114830Y-72077D01*
X-115631Y-72716D01*
Y-73741D01*
X-114830Y-74380D01*
X-113830Y-74152D01*
X-113386Y-73228D01*
X28346D02*
X27902Y-72305D01*
X26902Y-72077D01*
X26101Y-72716D01*
Y-73741D01*
X26902Y-74380D01*
X27902Y-74152D01*
X28346Y-73228D01*
G54D33*
X94095Y-93701D02*
Y-69291D01*
X118504Y-93701D02*
Y-69291D01*
X94095D02*
X118504D01*
X94095Y-93701D02*
X118504D01*
X94095Y69291D02*
Y93701D01*
X118504Y69291D02*
Y93701D01*
X94095D02*
X118504D01*
X94095Y69291D02*
X118504D01*
X94095Y-12205D02*
Y12205D01*
X118504Y-12205D02*
Y12205D01*
X94095D02*
X118504D01*
X94095Y-12205D02*
X118504D01*
X-47638D02*
Y12205D01*
X-23228Y-12205D02*
Y12205D01*
X-47638D02*
X-23228D01*
X-47638Y-12205D02*
X-23228D01*
X-47638Y69291D02*
Y93701D01*
X-23228Y69291D02*
Y93701D01*
X-47638D02*
X-23228D01*
X-47638Y69291D02*
X-23228D01*
X-47638Y-93701D02*
Y-69291D01*
X-23228Y-93701D02*
Y-69291D01*
X-47638D02*
X-23228D01*
X-47638Y-93701D02*
X-23228D01*
X-118504Y-12205D02*
Y12205D01*
X-94095Y-12205D02*
Y12205D01*
X-118504D02*
X-94095D01*
X-118504Y-12205D02*
X-94095D01*
X23228D02*
Y12205D01*
X47638Y-12205D02*
Y12205D01*
X23228D02*
X47638D01*
X23228Y-12205D02*
X47638D01*
X-118504Y69291D02*
Y93701D01*
X-94095Y69291D02*
Y93701D01*
X-118504D02*
X-94095D01*
X-118504Y69291D02*
X-94095D01*
X23228D02*
Y93701D01*
X47638Y69291D02*
Y93701D01*
X23228D02*
X47638D01*
X23228Y69291D02*
X47638D01*
X-118504Y-93701D02*
Y-69291D01*
X-94095Y-93701D02*
Y-69291D01*
X-118504D02*
X-94095D01*
X-118504Y-93701D02*
X-94095D01*
X23228D02*
Y-69291D01*
X47638Y-93701D02*
Y-69291D01*
X23228D02*
X47638D01*
X23228Y-93701D02*
X47638D01*
M02*
