G04*
G04 #@! TF.GenerationSoftware,Altium Limited,Altium Designer,20.1.11 (218)*
G04*
G04 Layer_Color=16711935*
%FSLAX25Y25*%
%MOIN*%
G70*
G04*
G04 #@! TF.SameCoordinates,4A8DF08C-7CCE-415C-BD08-992622932B33*
G04*
G04*
G04 #@! TF.FilePolarity,Positive*
G04*
G01*
G75*
%ADD10C,0.01000*%
%ADD33C,0.00787*%
%ADD50C,0.01968*%
G54D10*
X137795Y-81496D02*
X137779Y-80481D01*
X137730Y-79466D01*
X137648Y-78454D01*
X137534Y-77445D01*
X137387Y-76440D01*
X137208Y-75441D01*
X136996Y-74448D01*
X136753Y-73462D01*
X136478Y-72484D01*
X136172Y-71516D01*
X135835Y-70558D01*
X135467Y-69611D01*
X135069Y-68677D01*
X134640Y-67756D01*
X134183Y-66850D01*
X133696Y-65959D01*
X133181Y-65083D01*
X132638Y-64225D01*
X132067Y-63385D01*
X131470Y-62564D01*
X130847Y-61762D01*
X130198Y-60981D01*
X129524Y-60221D01*
X128826Y-59484D01*
X83858Y-59396D02*
X83154Y-60135D01*
X82474Y-60896D01*
X81819Y-61679D01*
X81190Y-62482D01*
X80587Y-63306D01*
X80011Y-64148D01*
X79463Y-65009D01*
X78943Y-65887D01*
X78451Y-66782D01*
X77989Y-67692D01*
X77557Y-68616D01*
X77155Y-69555D01*
X76783Y-70505D01*
X76442Y-71467D01*
X76133Y-72440D01*
X75856Y-73422D01*
X75610Y-74413D01*
X75397Y-75411D01*
X75216Y-76415D01*
X75067Y-77425D01*
X74952Y-78439D01*
X74869Y-79456D01*
X74820Y-80476D01*
X74803Y-81496D01*
X106299Y-112992D02*
X107309Y-112976D01*
X108317Y-112927D01*
X109324Y-112847D01*
X110327Y-112733D01*
X111326Y-112588D01*
X112320Y-112411D01*
X113308Y-112202D01*
X114288Y-111962D01*
X115261Y-111690D01*
X116224Y-111388D01*
X117177Y-111054D01*
X118119Y-110690D01*
X119048Y-110296D01*
X119965Y-109873D01*
X120867Y-109421D01*
X121755Y-108939D01*
X122626Y-108430D01*
X123481Y-107893D01*
X124319Y-107328D01*
X125137Y-106737D01*
X125937Y-106121D01*
X126716Y-105479D01*
X127474Y-104812D01*
X128210Y-104121D01*
X128924Y-103407D01*
X129615Y-102671D01*
X130282Y-101913D01*
X130924Y-101134D01*
X131541Y-100334D01*
X132131Y-99515D01*
X132696Y-98678D01*
X133233Y-97823D01*
X133742Y-96952D01*
X134224Y-96064D01*
X134676Y-95162D01*
X135100Y-94245D01*
X135493Y-93316D01*
X135857Y-92374D01*
X136191Y-91421D01*
X136494Y-90458D01*
X136765Y-89485D01*
X137006Y-88505D01*
X137214Y-87517D01*
X137391Y-86523D01*
X137537Y-85524D01*
X137650Y-84521D01*
X137731Y-83514D01*
X137779Y-82506D01*
X137795Y-81496D01*
X74803Y-81496D02*
X74819Y-82506D01*
X74868Y-83514D01*
X74949Y-84520D01*
X75062Y-85524D01*
X75207Y-86523D01*
X75384Y-87517D01*
X75593Y-88505D01*
X75833Y-89485D01*
X76105Y-90457D01*
X76408Y-91421D01*
X76741Y-92374D01*
X77105Y-93316D01*
X77499Y-94245D01*
X77922Y-95162D01*
X78375Y-96064D01*
X78856Y-96952D01*
X79366Y-97823D01*
X79903Y-98678D01*
X80467Y-99515D01*
X81058Y-100334D01*
X81675Y-101134D01*
X82317Y-101913D01*
X82983Y-102671D01*
X83674Y-103407D01*
X84388Y-104121D01*
X85124Y-104812D01*
X85883Y-105479D01*
X86662Y-106121D01*
X87461Y-106737D01*
X88280Y-107328D01*
X89117Y-107893D01*
X89972Y-108430D01*
X90843Y-108939D01*
X91731Y-109420D01*
X92633Y-109873D01*
X93550Y-110296D01*
X94480Y-110690D01*
X95421Y-111054D01*
X96374Y-111388D01*
X97338Y-111690D01*
X98310Y-111962D01*
X99291Y-112202D01*
X100278Y-112411D01*
X101272Y-112588D01*
X102271Y-112733D01*
X103275Y-112847D01*
X104281Y-112927D01*
X105290Y-112976D01*
X106299Y-112992D01*
X137795Y81496D02*
X137779Y82511D01*
X137730Y83526D01*
X137648Y84538D01*
X137534Y85547D01*
X137387Y86552D01*
X137208Y87551D01*
X136996Y88545D01*
X136753Y89531D01*
X136478Y90508D01*
X136172Y91477D01*
X135835Y92434D01*
X135467Y93381D01*
X135069Y94315D01*
X134640Y95236D01*
X134183Y96142D01*
X133696Y97034D01*
X133181Y97909D01*
X132638Y98767D01*
X132067Y99607D01*
X131470Y100428D01*
X130847Y101230D01*
X130198Y102011D01*
X129524Y102771D01*
X128826Y103508D01*
X83858Y103596D02*
X83154Y102857D01*
X82474Y102096D01*
X81819Y101313D01*
X81190Y100510D01*
X80587Y99686D01*
X80011Y98844D01*
X79463Y97983D01*
X78943Y97105D01*
X78451Y96210D01*
X77989Y95300D01*
X77557Y94376D01*
X77155Y93438D01*
X76783Y92487D01*
X76442Y91525D01*
X76133Y90552D01*
X75856Y89570D01*
X75610Y88580D01*
X75397Y87581D01*
X75216Y86577D01*
X75067Y85567D01*
X74952Y84553D01*
X74869Y83536D01*
X74820Y82517D01*
X74803Y81496D01*
X106299Y50000D02*
X107309Y50016D01*
X108317Y50065D01*
X109324Y50146D01*
X110327Y50259D01*
X111326Y50404D01*
X112320Y50581D01*
X113308Y50790D01*
X114288Y51030D01*
X115261Y51302D01*
X116224Y51604D01*
X117177Y51938D01*
X118119Y52302D01*
X119048Y52696D01*
X119965Y53119D01*
X120867Y53572D01*
X121755Y54053D01*
X122626Y54562D01*
X123481Y55100D01*
X124319Y55664D01*
X125137Y56255D01*
X125937Y56871D01*
X126716Y57513D01*
X127474Y58180D01*
X128210Y58871D01*
X128924Y59585D01*
X129615Y60321D01*
X130282Y61079D01*
X130924Y61859D01*
X131541Y62658D01*
X132131Y63477D01*
X132696Y64314D01*
X133233Y65169D01*
X133742Y66040D01*
X134224Y66928D01*
X134676Y67830D01*
X135100Y68747D01*
X135493Y69677D01*
X135857Y70618D01*
X136191Y71571D01*
X136494Y72535D01*
X136765Y73507D01*
X137006Y74488D01*
X137214Y75475D01*
X137391Y76469D01*
X137537Y77468D01*
X137650Y78472D01*
X137731Y79478D01*
X137779Y80487D01*
X137795Y81496D01*
X74803Y81496D02*
X74819Y80487D01*
X74868Y79478D01*
X74949Y78472D01*
X75062Y77468D01*
X75207Y76469D01*
X75384Y75475D01*
X75593Y74488D01*
X75833Y73507D01*
X76105Y72535D01*
X76408Y71571D01*
X76741Y70618D01*
X77105Y69677D01*
X77499Y68747D01*
X77922Y67830D01*
X78375Y66928D01*
X78856Y66040D01*
X79366Y65169D01*
X79903Y64314D01*
X80467Y63477D01*
X81058Y62658D01*
X81675Y61859D01*
X82317Y61080D01*
X82983Y60321D01*
X83674Y59585D01*
X84388Y58871D01*
X85124Y58180D01*
X85883Y57514D01*
X86662Y56871D01*
X87461Y56255D01*
X88280Y55664D01*
X89117Y55100D01*
X89972Y54562D01*
X90843Y54053D01*
X91731Y53572D01*
X92633Y53119D01*
X93550Y52696D01*
X94480Y52302D01*
X95421Y51938D01*
X96374Y51605D01*
X97338Y51302D01*
X98310Y51030D01*
X99291Y50790D01*
X100278Y50581D01*
X101272Y50404D01*
X102271Y50259D01*
X103275Y50146D01*
X104281Y50065D01*
X105290Y50016D01*
X106299Y50000D01*
X137795Y0D02*
X137779Y1015D01*
X137730Y2030D01*
X137648Y3042D01*
X137534Y4051D01*
X137387Y5056D01*
X137208Y6055D01*
X136996Y7049D01*
X136753Y8035D01*
X136478Y9012D01*
X136172Y9980D01*
X135835Y10938D01*
X135467Y11885D01*
X135069Y12819D01*
X134640Y13740D01*
X134183Y14646D01*
X133696Y15538D01*
X133181Y16413D01*
X132638Y17271D01*
X132067Y18111D01*
X131470Y18932D01*
X130847Y19734D01*
X130198Y20515D01*
X129524Y21275D01*
X128826Y22012D01*
X83858Y22100D02*
X83154Y21361D01*
X82474Y20600D01*
X81819Y19817D01*
X81190Y19014D01*
X80587Y18190D01*
X80011Y17348D01*
X79463Y16487D01*
X78943Y15609D01*
X78451Y14714D01*
X77989Y13804D01*
X77557Y12880D01*
X77155Y11942D01*
X76783Y10991D01*
X76442Y10029D01*
X76133Y9056D01*
X75856Y8074D01*
X75610Y7084D01*
X75397Y6086D01*
X75216Y5081D01*
X75067Y4071D01*
X74952Y3057D01*
X74869Y2040D01*
X74820Y1020D01*
X74803Y0D01*
X106299Y-31496D02*
X107309Y-31480D01*
X108317Y-31431D01*
X109324Y-31350D01*
X110327Y-31238D01*
X111326Y-31092D01*
X112320Y-30915D01*
X113308Y-30706D01*
X114288Y-30466D01*
X115261Y-30194D01*
X116224Y-29891D01*
X117177Y-29558D01*
X118119Y-29194D01*
X119048Y-28800D01*
X119965Y-28377D01*
X120867Y-27924D01*
X121755Y-27443D01*
X122626Y-26934D01*
X123481Y-26397D01*
X124319Y-25832D01*
X125137Y-25241D01*
X125937Y-24625D01*
X126716Y-23983D01*
X127474Y-23316D01*
X128210Y-22625D01*
X128924Y-21911D01*
X129615Y-21175D01*
X130282Y-20417D01*
X130924Y-19637D01*
X131541Y-18838D01*
X132131Y-18020D01*
X132696Y-17182D01*
X133233Y-16327D01*
X133742Y-15456D01*
X134224Y-14568D01*
X134676Y-13666D01*
X135100Y-12749D01*
X135493Y-11819D01*
X135857Y-10878D01*
X136191Y-9925D01*
X136494Y-8962D01*
X136765Y-7989D01*
X137006Y-7009D01*
X137214Y-6021D01*
X137391Y-5027D01*
X137537Y-4028D01*
X137650Y-3024D01*
X137731Y-2018D01*
X137779Y-1010D01*
X137795Y-0D01*
X74803Y0D02*
X74819Y-1010D01*
X74868Y-2018D01*
X74949Y-3024D01*
X75062Y-4028D01*
X75207Y-5027D01*
X75384Y-6021D01*
X75593Y-7008D01*
X75833Y-7989D01*
X76105Y-8962D01*
X76408Y-9925D01*
X76741Y-10878D01*
X77105Y-11819D01*
X77499Y-12749D01*
X77922Y-13666D01*
X78375Y-14568D01*
X78856Y-15456D01*
X79366Y-16327D01*
X79903Y-17182D01*
X80467Y-18019D01*
X81058Y-18838D01*
X81675Y-19637D01*
X82317Y-20417D01*
X82983Y-21175D01*
X83674Y-21911D01*
X84388Y-22625D01*
X85124Y-23316D01*
X85883Y-23982D01*
X86662Y-24625D01*
X87461Y-25241D01*
X88280Y-25832D01*
X89117Y-26396D01*
X89972Y-26934D01*
X90843Y-27443D01*
X91731Y-27924D01*
X92633Y-28377D01*
X93550Y-28800D01*
X94480Y-29194D01*
X95421Y-29558D01*
X96374Y-29891D01*
X97338Y-30194D01*
X98310Y-30466D01*
X99291Y-30706D01*
X100278Y-30915D01*
X101272Y-31092D01*
X102271Y-31238D01*
X103275Y-31350D01*
X104281Y-31431D01*
X105290Y-31480D01*
X106299Y-31496D01*
X-3937Y0D02*
X-3953Y1015D01*
X-4002Y2030D01*
X-4084Y3042D01*
X-4199Y4051D01*
X-4345Y5056D01*
X-4525Y6055D01*
X-4736Y7049D01*
X-4979Y8035D01*
X-5254Y9012D01*
X-5560Y9980D01*
X-5897Y10938D01*
X-6265Y11885D01*
X-6664Y12819D01*
X-7092Y13740D01*
X-7549Y14646D01*
X-8036Y15538D01*
X-8551Y16413D01*
X-9094Y17271D01*
X-9665Y18111D01*
X-10262Y18932D01*
X-10886Y19734D01*
X-11535Y20515D01*
X-12208Y21275D01*
X-12906Y22012D01*
X-57874Y22100D02*
X-58578Y21361D01*
X-59258Y20600D01*
X-59913Y19817D01*
X-60542Y19014D01*
X-61145Y18190D01*
X-61721Y17348D01*
X-62269Y16487D01*
X-62789Y15609D01*
X-63281Y14714D01*
X-63743Y13804D01*
X-64175Y12880D01*
X-64578Y11942D01*
X-64949Y10991D01*
X-65290Y10029D01*
X-65599Y9056D01*
X-65877Y8074D01*
X-66122Y7084D01*
X-66336Y6086D01*
X-66517Y5081D01*
X-66665Y4071D01*
X-66780Y3057D01*
X-66863Y2040D01*
X-66913Y1020D01*
X-66929Y0D01*
X-35433Y-31496D02*
X-34424Y-31480D01*
X-33415Y-31431D01*
X-32409Y-31350D01*
X-31405Y-31238D01*
X-30406Y-31092D01*
X-29412Y-30915D01*
X-28425Y-30706D01*
X-27444Y-30466D01*
X-26472Y-30194D01*
X-25508Y-29891D01*
X-24555Y-29558D01*
X-23614Y-29194D01*
X-22684Y-28800D01*
X-21768Y-28377D01*
X-20865Y-27924D01*
X-19977Y-27443D01*
X-19106Y-26934D01*
X-18251Y-26397D01*
X-17414Y-25832D01*
X-16595Y-25241D01*
X-15796Y-24625D01*
X-15017Y-23983D01*
X-14258Y-23316D01*
X-13522Y-22625D01*
X-12808Y-21911D01*
X-12117Y-21175D01*
X-11451Y-20417D01*
X-10808Y-19637D01*
X-10192Y-18838D01*
X-9601Y-18020D01*
X-9037Y-17182D01*
X-8500Y-16327D01*
X-7990Y-15456D01*
X-7509Y-14568D01*
X-7056Y-13666D01*
X-6633Y-12749D01*
X-6239Y-11819D01*
X-5875Y-10878D01*
X-5542Y-9925D01*
X-5239Y-8962D01*
X-4967Y-7989D01*
X-4727Y-7009D01*
X-4518Y-6021D01*
X-4341Y-5027D01*
X-4196Y-4028D01*
X-4083Y-3024D01*
X-4002Y-2018D01*
X-3953Y-1010D01*
X-3937Y-0D01*
X-66929Y0D02*
X-66913Y-1010D01*
X-66864Y-2018D01*
X-66784Y-3024D01*
X-66671Y-4028D01*
X-66525Y-5027D01*
X-66348Y-6021D01*
X-66140Y-7008D01*
X-65899Y-7989D01*
X-65627Y-8962D01*
X-65325Y-9925D01*
X-64991Y-10878D01*
X-64627Y-11819D01*
X-64233Y-12749D01*
X-63810Y-13666D01*
X-63358Y-14568D01*
X-62876Y-15456D01*
X-62367Y-16327D01*
X-61830Y-17182D01*
X-61265Y-18019D01*
X-60675Y-18838D01*
X-60058Y-19637D01*
X-59416Y-20417D01*
X-58749Y-21175D01*
X-58058Y-21911D01*
X-57344Y-22625D01*
X-56608Y-23316D01*
X-55850Y-23982D01*
X-55071Y-24625D01*
X-54271Y-25241D01*
X-53452Y-25832D01*
X-52615Y-26396D01*
X-51761Y-26934D01*
X-50889Y-27443D01*
X-50001Y-27924D01*
X-49099Y-28377D01*
X-48182Y-28800D01*
X-47253Y-29194D01*
X-46311Y-29558D01*
X-45358Y-29891D01*
X-44395Y-30194D01*
X-43422Y-30466D01*
X-42442Y-30706D01*
X-41454Y-30915D01*
X-40460Y-31092D01*
X-39461Y-31238D01*
X-38458Y-31350D01*
X-37451Y-31431D01*
X-36443Y-31480D01*
X-35433Y-31496D01*
X-3937Y81496D02*
X-3953Y82511D01*
X-4002Y83526D01*
X-4084Y84538D01*
X-4199Y85547D01*
X-4345Y86552D01*
X-4525Y87551D01*
X-4736Y88545D01*
X-4979Y89531D01*
X-5254Y90508D01*
X-5560Y91477D01*
X-5897Y92434D01*
X-6265Y93381D01*
X-6664Y94315D01*
X-7092Y95236D01*
X-7549Y96142D01*
X-8036Y97034D01*
X-8551Y97909D01*
X-9094Y98767D01*
X-9665Y99607D01*
X-10262Y100428D01*
X-10886Y101230D01*
X-11535Y102011D01*
X-12208Y102771D01*
X-12906Y103508D01*
X-57874Y103596D02*
X-58578Y102857D01*
X-59258Y102096D01*
X-59913Y101313D01*
X-60542Y100510D01*
X-61145Y99686D01*
X-61721Y98844D01*
X-62269Y97983D01*
X-62789Y97105D01*
X-63281Y96210D01*
X-63743Y95300D01*
X-64175Y94376D01*
X-64578Y93438D01*
X-64949Y92487D01*
X-65290Y91525D01*
X-65599Y90552D01*
X-65877Y89570D01*
X-66122Y88580D01*
X-66336Y87581D01*
X-66517Y86577D01*
X-66665Y85567D01*
X-66780Y84553D01*
X-66863Y83536D01*
X-66913Y82517D01*
X-66929Y81496D01*
X-35433Y50000D02*
X-34424Y50016D01*
X-33415Y50065D01*
X-32409Y50146D01*
X-31405Y50259D01*
X-30406Y50404D01*
X-29412Y50581D01*
X-28425Y50790D01*
X-27444Y51030D01*
X-26472Y51302D01*
X-25508Y51604D01*
X-24555Y51938D01*
X-23614Y52302D01*
X-22684Y52696D01*
X-21768Y53119D01*
X-20865Y53572D01*
X-19977Y54053D01*
X-19106Y54562D01*
X-18251Y55100D01*
X-17414Y55664D01*
X-16595Y56255D01*
X-15796Y56871D01*
X-15017Y57513D01*
X-14258Y58180D01*
X-13522Y58871D01*
X-12808Y59585D01*
X-12117Y60321D01*
X-11451Y61079D01*
X-10808Y61859D01*
X-10192Y62658D01*
X-9601Y63477D01*
X-9037Y64314D01*
X-8500Y65169D01*
X-7990Y66040D01*
X-7509Y66928D01*
X-7056Y67830D01*
X-6633Y68747D01*
X-6239Y69677D01*
X-5875Y70618D01*
X-5542Y71571D01*
X-5239Y72535D01*
X-4967Y73507D01*
X-4727Y74488D01*
X-4518Y75475D01*
X-4341Y76469D01*
X-4196Y77468D01*
X-4083Y78472D01*
X-4002Y79478D01*
X-3953Y80487D01*
X-3937Y81496D01*
X-66929Y81496D02*
X-66913Y80487D01*
X-66864Y79478D01*
X-66784Y78472D01*
X-66671Y77468D01*
X-66525Y76469D01*
X-66348Y75475D01*
X-66140Y74488D01*
X-65899Y73507D01*
X-65627Y72535D01*
X-65325Y71571D01*
X-64991Y70618D01*
X-64627Y69677D01*
X-64233Y68747D01*
X-63810Y67830D01*
X-63358Y66928D01*
X-62876Y66040D01*
X-62367Y65169D01*
X-61830Y64314D01*
X-61265Y63477D01*
X-60675Y62658D01*
X-60058Y61859D01*
X-59416Y61080D01*
X-58749Y60321D01*
X-58058Y59585D01*
X-57344Y58871D01*
X-56608Y58180D01*
X-55850Y57514D01*
X-55071Y56871D01*
X-54271Y56255D01*
X-53452Y55664D01*
X-52615Y55100D01*
X-51761Y54562D01*
X-50889Y54053D01*
X-50001Y53572D01*
X-49099Y53119D01*
X-48182Y52696D01*
X-47253Y52302D01*
X-46311Y51938D01*
X-45358Y51605D01*
X-44395Y51302D01*
X-43422Y51030D01*
X-42442Y50790D01*
X-41454Y50581D01*
X-40460Y50404D01*
X-39461Y50259D01*
X-38458Y50146D01*
X-37451Y50065D01*
X-36443Y50016D01*
X-35433Y50000D01*
X-3937Y-81496D02*
X-3953Y-80481D01*
X-4002Y-79466D01*
X-4084Y-78454D01*
X-4199Y-77445D01*
X-4345Y-76440D01*
X-4525Y-75441D01*
X-4736Y-74448D01*
X-4979Y-73462D01*
X-5254Y-72484D01*
X-5560Y-71516D01*
X-5897Y-70558D01*
X-6265Y-69611D01*
X-6664Y-68677D01*
X-7092Y-67756D01*
X-7549Y-66850D01*
X-8036Y-65959D01*
X-8551Y-65083D01*
X-9094Y-64225D01*
X-9665Y-63385D01*
X-10262Y-62564D01*
X-10886Y-61762D01*
X-11535Y-60981D01*
X-12208Y-60221D01*
X-12906Y-59484D01*
X-57874Y-59396D02*
X-58578Y-60135D01*
X-59258Y-60896D01*
X-59913Y-61679D01*
X-60542Y-62482D01*
X-61145Y-63306D01*
X-61721Y-64148D01*
X-62269Y-65009D01*
X-62789Y-65887D01*
X-63281Y-66782D01*
X-63743Y-67692D01*
X-64175Y-68616D01*
X-64578Y-69555D01*
X-64949Y-70505D01*
X-65290Y-71467D01*
X-65599Y-72440D01*
X-65877Y-73422D01*
X-66122Y-74413D01*
X-66336Y-75411D01*
X-66517Y-76415D01*
X-66665Y-77425D01*
X-66780Y-78439D01*
X-66863Y-79456D01*
X-66913Y-80476D01*
X-66929Y-81496D01*
X-35433Y-112992D02*
X-34424Y-112976D01*
X-33415Y-112927D01*
X-32409Y-112847D01*
X-31405Y-112733D01*
X-30406Y-112588D01*
X-29412Y-112411D01*
X-28425Y-112202D01*
X-27444Y-111962D01*
X-26472Y-111690D01*
X-25508Y-111388D01*
X-24555Y-111054D01*
X-23614Y-110690D01*
X-22684Y-110296D01*
X-21768Y-109873D01*
X-20865Y-109421D01*
X-19977Y-108939D01*
X-19106Y-108430D01*
X-18251Y-107893D01*
X-17414Y-107328D01*
X-16595Y-106737D01*
X-15796Y-106121D01*
X-15017Y-105479D01*
X-14258Y-104812D01*
X-13522Y-104121D01*
X-12808Y-103407D01*
X-12117Y-102671D01*
X-11451Y-101913D01*
X-10808Y-101134D01*
X-10192Y-100334D01*
X-9601Y-99515D01*
X-9037Y-98678D01*
X-8500Y-97823D01*
X-7990Y-96952D01*
X-7509Y-96064D01*
X-7056Y-95162D01*
X-6633Y-94245D01*
X-6239Y-93316D01*
X-5875Y-92374D01*
X-5542Y-91421D01*
X-5239Y-90458D01*
X-4967Y-89485D01*
X-4727Y-88505D01*
X-4518Y-87517D01*
X-4341Y-86523D01*
X-4196Y-85524D01*
X-4083Y-84521D01*
X-4002Y-83514D01*
X-3953Y-82506D01*
X-3937Y-81496D01*
X-66929Y-81496D02*
X-66913Y-82506D01*
X-66864Y-83514D01*
X-66784Y-84520D01*
X-66671Y-85524D01*
X-66525Y-86523D01*
X-66348Y-87517D01*
X-66140Y-88505D01*
X-65899Y-89485D01*
X-65627Y-90457D01*
X-65325Y-91421D01*
X-64991Y-92374D01*
X-64627Y-93316D01*
X-64233Y-94245D01*
X-63810Y-95162D01*
X-63358Y-96064D01*
X-62876Y-96952D01*
X-62367Y-97823D01*
X-61830Y-98678D01*
X-61265Y-99515D01*
X-60675Y-100334D01*
X-60058Y-101134D01*
X-59416Y-101913D01*
X-58749Y-102671D01*
X-58058Y-103407D01*
X-57344Y-104121D01*
X-56608Y-104812D01*
X-55850Y-105479D01*
X-55071Y-106121D01*
X-54271Y-106737D01*
X-53452Y-107328D01*
X-52615Y-107893D01*
X-51761Y-108430D01*
X-50889Y-108939D01*
X-50001Y-109420D01*
X-49099Y-109873D01*
X-48182Y-110296D01*
X-47253Y-110690D01*
X-46311Y-111054D01*
X-45358Y-111388D01*
X-44395Y-111690D01*
X-43422Y-111962D01*
X-42442Y-112202D01*
X-41454Y-112411D01*
X-40460Y-112588D01*
X-39461Y-112733D01*
X-38458Y-112847D01*
X-37451Y-112927D01*
X-36443Y-112976D01*
X-35433Y-112992D01*
X-74803Y0D02*
X-74819Y1015D01*
X-74869Y2030D01*
X-74950Y3042D01*
X-75065Y4051D01*
X-75212Y5056D01*
X-75391Y6055D01*
X-75602Y7049D01*
X-75845Y8035D01*
X-76120Y9012D01*
X-76426Y9980D01*
X-76763Y10938D01*
X-77131Y11885D01*
X-77530Y12819D01*
X-77958Y13740D01*
X-78416Y14646D01*
X-78902Y15538D01*
X-79418Y16413D01*
X-79961Y17271D01*
X-80531Y18111D01*
X-81128Y18932D01*
X-81752Y19734D01*
X-82401Y20515D01*
X-83074Y21275D01*
X-83772Y22012D01*
X-128740Y22100D02*
X-129444Y21361D01*
X-130124Y20600D01*
X-130779Y19817D01*
X-131409Y19014D01*
X-132011Y18190D01*
X-132587Y17348D01*
X-133135Y16487D01*
X-133656Y15609D01*
X-134147Y14714D01*
X-134609Y13804D01*
X-135041Y12880D01*
X-135444Y11942D01*
X-135815Y10991D01*
X-136156Y10029D01*
X-136465Y9056D01*
X-136743Y8074D01*
X-136988Y7084D01*
X-137202Y6086D01*
X-137383Y5081D01*
X-137531Y4071D01*
X-137647Y3057D01*
X-137729Y2040D01*
X-137779Y1020D01*
X-137795Y0D01*
X-106299Y-31496D02*
X-105290Y-31480D01*
X-104281Y-31431D01*
X-103275Y-31350D01*
X-102272Y-31238D01*
X-101272Y-31092D01*
X-100278Y-30915D01*
X-99291Y-30706D01*
X-98310Y-30466D01*
X-97338Y-30194D01*
X-96375Y-29891D01*
X-95422Y-29558D01*
X-94480Y-29194D01*
X-93550Y-28800D01*
X-92634Y-28377D01*
X-91731Y-27924D01*
X-90844Y-27443D01*
X-89972Y-26934D01*
X-89117Y-26397D01*
X-88280Y-25832D01*
X-87461Y-25241D01*
X-86662Y-24625D01*
X-85883Y-23983D01*
X-85124Y-23316D01*
X-84388Y-22625D01*
X-83674Y-21911D01*
X-82983Y-21175D01*
X-82317Y-20417D01*
X-81675Y-19637D01*
X-81058Y-18838D01*
X-80467Y-18020D01*
X-79903Y-17182D01*
X-79366Y-16327D01*
X-78856Y-15456D01*
X-78375Y-14568D01*
X-77922Y-13666D01*
X-77499Y-12749D01*
X-77105Y-11819D01*
X-76741Y-10878D01*
X-76408Y-9925D01*
X-76105Y-8962D01*
X-75833Y-7989D01*
X-75593Y-7009D01*
X-75384Y-6021D01*
X-75207Y-5027D01*
X-75062Y-4028D01*
X-74949Y-3024D01*
X-74868Y-2018D01*
X-74819Y-1010D01*
X-74803Y-0D01*
X-137795Y0D02*
X-137779Y-1010D01*
X-137731Y-2018D01*
X-137650Y-3024D01*
X-137537Y-4028D01*
X-137392Y-5027D01*
X-137215Y-6021D01*
X-137006Y-7008D01*
X-136765Y-7989D01*
X-136494Y-8962D01*
X-136191Y-9925D01*
X-135857Y-10878D01*
X-135494Y-11819D01*
X-135100Y-12749D01*
X-134676Y-13666D01*
X-134224Y-14568D01*
X-133742Y-15456D01*
X-133233Y-16327D01*
X-132696Y-17182D01*
X-132131Y-18019D01*
X-131541Y-18838D01*
X-130924Y-19637D01*
X-130282Y-20417D01*
X-129615Y-21175D01*
X-128924Y-21911D01*
X-128210Y-22625D01*
X-127474Y-23316D01*
X-126716Y-23982D01*
X-125937Y-24625D01*
X-125137Y-25241D01*
X-124319Y-25832D01*
X-123482Y-26396D01*
X-122627Y-26934D01*
X-121755Y-27443D01*
X-120867Y-27924D01*
X-119965Y-28377D01*
X-119048Y-28800D01*
X-118119Y-29194D01*
X-117177Y-29558D01*
X-116224Y-29891D01*
X-115261Y-30194D01*
X-114288Y-30466D01*
X-113308Y-30706D01*
X-112320Y-30915D01*
X-111326Y-31092D01*
X-110327Y-31238D01*
X-109324Y-31350D01*
X-108317Y-31431D01*
X-107309Y-31480D01*
X-106299Y-31496D01*
X66929Y0D02*
X66913Y1015D01*
X66864Y2030D01*
X66782Y3042D01*
X66667Y4051D01*
X66521Y5056D01*
X66342Y6055D01*
X66130Y7049D01*
X65887Y8035D01*
X65612Y9012D01*
X65306Y9980D01*
X64969Y10938D01*
X64601Y11885D01*
X64202Y12819D01*
X63774Y13740D01*
X63317Y14646D01*
X62830Y15538D01*
X62315Y16413D01*
X61772Y17271D01*
X61201Y18111D01*
X60604Y18932D01*
X59981Y19734D01*
X59332Y20515D01*
X58658Y21275D01*
X57960Y22012D01*
X12992Y22100D02*
X12288Y21361D01*
X11608Y20600D01*
X10953Y19817D01*
X10324Y19014D01*
X9721Y18190D01*
X9145Y17348D01*
X8597Y16487D01*
X8077Y15609D01*
X7585Y14714D01*
X7123Y13804D01*
X6691Y12880D01*
X6289Y11942D01*
X5917Y10991D01*
X5576Y10029D01*
X5267Y9056D01*
X4989Y8074D01*
X4744Y7084D01*
X4530Y6086D01*
X4349Y5081D01*
X4201Y4071D01*
X4086Y3057D01*
X4003Y2040D01*
X3954Y1020D01*
X3937Y0D01*
X35433Y-31496D02*
X36443Y-31480D01*
X37451Y-31431D01*
X38457Y-31350D01*
X39461Y-31238D01*
X40460Y-31092D01*
X41454Y-30915D01*
X42442Y-30706D01*
X43422Y-30466D01*
X44394Y-30194D01*
X45358Y-29891D01*
X46311Y-29558D01*
X47253Y-29194D01*
X48182Y-28800D01*
X49099Y-28377D01*
X50001Y-27924D01*
X50889Y-27443D01*
X51760Y-26934D01*
X52615Y-26397D01*
X53452Y-25832D01*
X54271Y-25241D01*
X55071Y-24625D01*
X55850Y-23983D01*
X56608Y-23316D01*
X57344Y-22625D01*
X58058Y-21911D01*
X58749Y-21175D01*
X59416Y-20417D01*
X60058Y-19637D01*
X60674Y-18838D01*
X61265Y-18020D01*
X61830Y-17182D01*
X62367Y-16327D01*
X62876Y-15456D01*
X63357Y-14568D01*
X63810Y-13666D01*
X64233Y-12749D01*
X64627Y-11819D01*
X64991Y-10878D01*
X65325Y-9925D01*
X65627Y-8962D01*
X65899Y-7989D01*
X66139Y-7009D01*
X66348Y-6021D01*
X66525Y-5027D01*
X66671Y-4028D01*
X66784Y-3024D01*
X66864Y-2018D01*
X66913Y-1010D01*
X66929Y-0D01*
X3937Y0D02*
X3953Y-1010D01*
X4002Y-2018D01*
X4082Y-3024D01*
X4196Y-4028D01*
X4341Y-5027D01*
X4518Y-6021D01*
X4727Y-7008D01*
X4967Y-7989D01*
X5239Y-8962D01*
X5542Y-9925D01*
X5875Y-10878D01*
X6239Y-11819D01*
X6633Y-12749D01*
X7056Y-13666D01*
X7509Y-14568D01*
X7990Y-15456D01*
X8499Y-16327D01*
X9037Y-17182D01*
X9601Y-18019D01*
X10192Y-18838D01*
X10808Y-19637D01*
X11451Y-20417D01*
X12117Y-21175D01*
X12808Y-21911D01*
X13522Y-22625D01*
X14258Y-23316D01*
X15016Y-23982D01*
X15796Y-24625D01*
X16595Y-25241D01*
X17414Y-25832D01*
X18251Y-26396D01*
X19106Y-26934D01*
X19977Y-27443D01*
X20865Y-27924D01*
X21767Y-28377D01*
X22684Y-28800D01*
X23614Y-29194D01*
X24555Y-29558D01*
X25508Y-29891D01*
X26471Y-30194D01*
X27444Y-30466D01*
X28425Y-30706D01*
X29412Y-30915D01*
X30406Y-31092D01*
X31405Y-31238D01*
X32409Y-31350D01*
X33415Y-31431D01*
X34424Y-31480D01*
X35433Y-31496D01*
X-74803Y81496D02*
X-74819Y82511D01*
X-74869Y83526D01*
X-74950Y84538D01*
X-75065Y85547D01*
X-75212Y86552D01*
X-75391Y87551D01*
X-75602Y88545D01*
X-75845Y89531D01*
X-76120Y90508D01*
X-76426Y91477D01*
X-76763Y92434D01*
X-77131Y93381D01*
X-77530Y94315D01*
X-77958Y95236D01*
X-78416Y96142D01*
X-78902Y97034D01*
X-79418Y97909D01*
X-79961Y98767D01*
X-80531Y99607D01*
X-81128Y100428D01*
X-81752Y101230D01*
X-82401Y102011D01*
X-83074Y102771D01*
X-83772Y103508D01*
X-128740Y103596D02*
X-129444Y102857D01*
X-130124Y102096D01*
X-130779Y101313D01*
X-131409Y100510D01*
X-132011Y99686D01*
X-132587Y98844D01*
X-133135Y97983D01*
X-133656Y97105D01*
X-134147Y96210D01*
X-134609Y95300D01*
X-135041Y94376D01*
X-135444Y93438D01*
X-135815Y92487D01*
X-136156Y91525D01*
X-136465Y90552D01*
X-136743Y89570D01*
X-136988Y88580D01*
X-137202Y87581D01*
X-137383Y86577D01*
X-137531Y85567D01*
X-137647Y84553D01*
X-137729Y83536D01*
X-137779Y82517D01*
X-137795Y81496D01*
X-106299Y50000D02*
X-105290Y50016D01*
X-104281Y50065D01*
X-103275Y50146D01*
X-102272Y50259D01*
X-101272Y50404D01*
X-100278Y50581D01*
X-99291Y50790D01*
X-98310Y51030D01*
X-97338Y51302D01*
X-96375Y51604D01*
X-95422Y51938D01*
X-94480Y52302D01*
X-93550Y52696D01*
X-92634Y53119D01*
X-91731Y53572D01*
X-90844Y54053D01*
X-89972Y54562D01*
X-89117Y55100D01*
X-88280Y55664D01*
X-87461Y56255D01*
X-86662Y56871D01*
X-85883Y57513D01*
X-85124Y58180D01*
X-84388Y58871D01*
X-83674Y59585D01*
X-82983Y60321D01*
X-82317Y61079D01*
X-81675Y61859D01*
X-81058Y62658D01*
X-80467Y63477D01*
X-79903Y64314D01*
X-79366Y65169D01*
X-78856Y66040D01*
X-78375Y66928D01*
X-77922Y67830D01*
X-77499Y68747D01*
X-77105Y69677D01*
X-76741Y70618D01*
X-76408Y71571D01*
X-76105Y72535D01*
X-75833Y73507D01*
X-75593Y74488D01*
X-75384Y75475D01*
X-75207Y76469D01*
X-75062Y77468D01*
X-74949Y78472D01*
X-74868Y79478D01*
X-74819Y80487D01*
X-74803Y81496D01*
X-137795Y81496D02*
X-137779Y80487D01*
X-137731Y79478D01*
X-137650Y78472D01*
X-137537Y77468D01*
X-137392Y76469D01*
X-137215Y75475D01*
X-137006Y74488D01*
X-136765Y73507D01*
X-136494Y72535D01*
X-136191Y71571D01*
X-135857Y70618D01*
X-135494Y69677D01*
X-135100Y68747D01*
X-134676Y67830D01*
X-134224Y66928D01*
X-133742Y66040D01*
X-133233Y65169D01*
X-132696Y64314D01*
X-132131Y63477D01*
X-131541Y62658D01*
X-130924Y61859D01*
X-130282Y61080D01*
X-129615Y60321D01*
X-128924Y59585D01*
X-128210Y58871D01*
X-127474Y58180D01*
X-126716Y57514D01*
X-125937Y56871D01*
X-125137Y56255D01*
X-124319Y55664D01*
X-123482Y55100D01*
X-122627Y54562D01*
X-121755Y54053D01*
X-120867Y53572D01*
X-119965Y53119D01*
X-119048Y52696D01*
X-118119Y52302D01*
X-117177Y51938D01*
X-116224Y51605D01*
X-115261Y51302D01*
X-114288Y51030D01*
X-113308Y50790D01*
X-112320Y50581D01*
X-111326Y50404D01*
X-110327Y50259D01*
X-109324Y50146D01*
X-108317Y50065D01*
X-107309Y50016D01*
X-106299Y50000D01*
X66929Y81496D02*
X66913Y82511D01*
X66864Y83526D01*
X66782Y84538D01*
X66667Y85547D01*
X66521Y86552D01*
X66342Y87551D01*
X66130Y88545D01*
X65887Y89531D01*
X65612Y90508D01*
X65306Y91477D01*
X64969Y92434D01*
X64601Y93381D01*
X64202Y94315D01*
X63774Y95236D01*
X63317Y96142D01*
X62830Y97034D01*
X62315Y97909D01*
X61772Y98767D01*
X61201Y99607D01*
X60604Y100428D01*
X59981Y101230D01*
X59332Y102011D01*
X58658Y102771D01*
X57960Y103508D01*
X12992Y103596D02*
X12288Y102857D01*
X11608Y102096D01*
X10953Y101313D01*
X10324Y100510D01*
X9721Y99686D01*
X9145Y98844D01*
X8597Y97983D01*
X8077Y97105D01*
X7585Y96210D01*
X7123Y95300D01*
X6691Y94376D01*
X6289Y93438D01*
X5917Y92487D01*
X5576Y91525D01*
X5267Y90552D01*
X4989Y89570D01*
X4744Y88580D01*
X4530Y87581D01*
X4349Y86577D01*
X4201Y85567D01*
X4086Y84553D01*
X4003Y83536D01*
X3954Y82517D01*
X3937Y81496D01*
X35433Y50000D02*
X36443Y50016D01*
X37451Y50065D01*
X38457Y50146D01*
X39461Y50259D01*
X40460Y50404D01*
X41454Y50581D01*
X42442Y50790D01*
X43422Y51030D01*
X44394Y51302D01*
X45358Y51604D01*
X46311Y51938D01*
X47253Y52302D01*
X48182Y52696D01*
X49099Y53119D01*
X50001Y53572D01*
X50889Y54053D01*
X51760Y54562D01*
X52615Y55100D01*
X53452Y55664D01*
X54271Y56255D01*
X55071Y56871D01*
X55850Y57513D01*
X56608Y58180D01*
X57344Y58871D01*
X58058Y59585D01*
X58749Y60321D01*
X59416Y61079D01*
X60058Y61859D01*
X60674Y62658D01*
X61265Y63477D01*
X61830Y64314D01*
X62367Y65169D01*
X62876Y66040D01*
X63357Y66928D01*
X63810Y67830D01*
X64233Y68747D01*
X64627Y69677D01*
X64991Y70618D01*
X65325Y71571D01*
X65627Y72535D01*
X65899Y73507D01*
X66139Y74488D01*
X66348Y75475D01*
X66525Y76469D01*
X66671Y77468D01*
X66784Y78472D01*
X66864Y79478D01*
X66913Y80487D01*
X66929Y81496D01*
X3937Y81496D02*
X3953Y80487D01*
X4002Y79478D01*
X4082Y78472D01*
X4196Y77468D01*
X4341Y76469D01*
X4518Y75475D01*
X4727Y74488D01*
X4967Y73507D01*
X5239Y72535D01*
X5542Y71571D01*
X5875Y70618D01*
X6239Y69677D01*
X6633Y68747D01*
X7056Y67830D01*
X7509Y66928D01*
X7990Y66040D01*
X8499Y65169D01*
X9037Y64314D01*
X9601Y63477D01*
X10192Y62658D01*
X10808Y61859D01*
X11451Y61080D01*
X12117Y60321D01*
X12808Y59585D01*
X13522Y58871D01*
X14258Y58180D01*
X15016Y57514D01*
X15796Y56871D01*
X16595Y56255D01*
X17414Y55664D01*
X18251Y55100D01*
X19106Y54562D01*
X19977Y54053D01*
X20865Y53572D01*
X21767Y53119D01*
X22684Y52696D01*
X23614Y52302D01*
X24555Y51938D01*
X25508Y51605D01*
X26471Y51302D01*
X27444Y51030D01*
X28425Y50790D01*
X29412Y50581D01*
X30406Y50404D01*
X31405Y50259D01*
X32409Y50146D01*
X33415Y50065D01*
X34424Y50016D01*
X35433Y50000D01*
X-74803Y-81496D02*
X-74819Y-80481D01*
X-74869Y-79466D01*
X-74950Y-78454D01*
X-75065Y-77445D01*
X-75212Y-76440D01*
X-75391Y-75441D01*
X-75602Y-74448D01*
X-75845Y-73462D01*
X-76120Y-72484D01*
X-76426Y-71516D01*
X-76763Y-70558D01*
X-77131Y-69611D01*
X-77530Y-68677D01*
X-77958Y-67756D01*
X-78416Y-66850D01*
X-78902Y-65959D01*
X-79418Y-65083D01*
X-79961Y-64225D01*
X-80531Y-63385D01*
X-81128Y-62564D01*
X-81752Y-61762D01*
X-82401Y-60981D01*
X-83074Y-60221D01*
X-83772Y-59484D01*
X-128740Y-59396D02*
X-129444Y-60135D01*
X-130124Y-60896D01*
X-130779Y-61679D01*
X-131409Y-62482D01*
X-132011Y-63306D01*
X-132587Y-64148D01*
X-133135Y-65009D01*
X-133656Y-65887D01*
X-134147Y-66782D01*
X-134609Y-67692D01*
X-135041Y-68616D01*
X-135444Y-69555D01*
X-135815Y-70505D01*
X-136156Y-71467D01*
X-136465Y-72440D01*
X-136743Y-73422D01*
X-136988Y-74413D01*
X-137202Y-75411D01*
X-137383Y-76415D01*
X-137531Y-77425D01*
X-137647Y-78439D01*
X-137729Y-79456D01*
X-137779Y-80476D01*
X-137795Y-81496D01*
X-106299Y-112992D02*
X-105290Y-112976D01*
X-104281Y-112927D01*
X-103275Y-112847D01*
X-102272Y-112733D01*
X-101272Y-112588D01*
X-100278Y-112411D01*
X-99291Y-112202D01*
X-98310Y-111962D01*
X-97338Y-111690D01*
X-96375Y-111388D01*
X-95422Y-111054D01*
X-94480Y-110690D01*
X-93550Y-110296D01*
X-92634Y-109873D01*
X-91731Y-109421D01*
X-90844Y-108939D01*
X-89972Y-108430D01*
X-89117Y-107893D01*
X-88280Y-107328D01*
X-87461Y-106737D01*
X-86662Y-106121D01*
X-85883Y-105479D01*
X-85124Y-104812D01*
X-84388Y-104121D01*
X-83674Y-103407D01*
X-82983Y-102671D01*
X-82317Y-101913D01*
X-81675Y-101134D01*
X-81058Y-100334D01*
X-80467Y-99515D01*
X-79903Y-98678D01*
X-79366Y-97823D01*
X-78856Y-96952D01*
X-78375Y-96064D01*
X-77922Y-95162D01*
X-77499Y-94245D01*
X-77105Y-93316D01*
X-76741Y-92374D01*
X-76408Y-91421D01*
X-76105Y-90458D01*
X-75833Y-89485D01*
X-75593Y-88505D01*
X-75384Y-87517D01*
X-75207Y-86523D01*
X-75062Y-85524D01*
X-74949Y-84521D01*
X-74868Y-83514D01*
X-74819Y-82506D01*
X-74803Y-81496D01*
X-137795Y-81496D02*
X-137779Y-82506D01*
X-137731Y-83514D01*
X-137650Y-84520D01*
X-137537Y-85524D01*
X-137392Y-86523D01*
X-137215Y-87517D01*
X-137006Y-88505D01*
X-136765Y-89485D01*
X-136494Y-90457D01*
X-136191Y-91421D01*
X-135857Y-92374D01*
X-135494Y-93316D01*
X-135100Y-94245D01*
X-134676Y-95162D01*
X-134224Y-96064D01*
X-133742Y-96952D01*
X-133233Y-97823D01*
X-132696Y-98678D01*
X-132131Y-99515D01*
X-131541Y-100334D01*
X-130924Y-101134D01*
X-130282Y-101913D01*
X-129615Y-102671D01*
X-128924Y-103407D01*
X-128210Y-104121D01*
X-127474Y-104812D01*
X-126716Y-105479D01*
X-125937Y-106121D01*
X-125137Y-106737D01*
X-124319Y-107328D01*
X-123482Y-107893D01*
X-122627Y-108430D01*
X-121755Y-108939D01*
X-120867Y-109420D01*
X-119965Y-109873D01*
X-119048Y-110296D01*
X-118119Y-110690D01*
X-117177Y-111054D01*
X-116224Y-111388D01*
X-115261Y-111690D01*
X-114288Y-111962D01*
X-113308Y-112202D01*
X-112320Y-112411D01*
X-111326Y-112588D01*
X-110327Y-112733D01*
X-109324Y-112847D01*
X-108317Y-112927D01*
X-107309Y-112976D01*
X-106299Y-112992D01*
X66929Y-81496D02*
X66913Y-80481D01*
X66864Y-79466D01*
X66782Y-78454D01*
X66667Y-77445D01*
X66521Y-76440D01*
X66342Y-75441D01*
X66130Y-74448D01*
X65887Y-73462D01*
X65612Y-72484D01*
X65306Y-71516D01*
X64969Y-70558D01*
X64601Y-69611D01*
X64202Y-68677D01*
X63774Y-67756D01*
X63317Y-66850D01*
X62830Y-65959D01*
X62315Y-65083D01*
X61772Y-64225D01*
X61201Y-63385D01*
X60604Y-62564D01*
X59981Y-61762D01*
X59332Y-60981D01*
X58658Y-60221D01*
X57960Y-59484D01*
X12992Y-59396D02*
X12288Y-60135D01*
X11608Y-60896D01*
X10953Y-61679D01*
X10324Y-62482D01*
X9721Y-63306D01*
X9145Y-64148D01*
X8597Y-65009D01*
X8077Y-65887D01*
X7585Y-66782D01*
X7123Y-67692D01*
X6691Y-68616D01*
X6289Y-69555D01*
X5917Y-70505D01*
X5576Y-71467D01*
X5267Y-72440D01*
X4989Y-73422D01*
X4744Y-74413D01*
X4530Y-75411D01*
X4349Y-76415D01*
X4201Y-77425D01*
X4086Y-78439D01*
X4003Y-79456D01*
X3954Y-80476D01*
X3937Y-81496D01*
X35433Y-112992D02*
X36443Y-112976D01*
X37451Y-112927D01*
X38457Y-112847D01*
X39461Y-112733D01*
X40460Y-112588D01*
X41454Y-112411D01*
X42442Y-112202D01*
X43422Y-111962D01*
X44394Y-111690D01*
X45358Y-111388D01*
X46311Y-111054D01*
X47253Y-110690D01*
X48182Y-110296D01*
X49099Y-109873D01*
X50001Y-109421D01*
X50889Y-108939D01*
X51760Y-108430D01*
X52615Y-107893D01*
X53452Y-107328D01*
X54271Y-106737D01*
X55071Y-106121D01*
X55850Y-105479D01*
X56608Y-104812D01*
X57344Y-104121D01*
X58058Y-103407D01*
X58749Y-102671D01*
X59416Y-101913D01*
X60058Y-101134D01*
X60674Y-100334D01*
X61265Y-99515D01*
X61830Y-98678D01*
X62367Y-97823D01*
X62876Y-96952D01*
X63357Y-96064D01*
X63810Y-95162D01*
X64233Y-94245D01*
X64627Y-93316D01*
X64991Y-92374D01*
X65325Y-91421D01*
X65627Y-90458D01*
X65899Y-89485D01*
X66139Y-88505D01*
X66348Y-87517D01*
X66525Y-86523D01*
X66671Y-85524D01*
X66784Y-84521D01*
X66864Y-83514D01*
X66913Y-82506D01*
X66929Y-81496D01*
X3937Y-81496D02*
X3953Y-82506D01*
X4002Y-83514D01*
X4082Y-84520D01*
X4196Y-85524D01*
X4341Y-86523D01*
X4518Y-87517D01*
X4727Y-88505D01*
X4967Y-89485D01*
X5239Y-90457D01*
X5542Y-91421D01*
X5875Y-92374D01*
X6239Y-93316D01*
X6633Y-94245D01*
X7056Y-95162D01*
X7509Y-96064D01*
X7990Y-96952D01*
X8499Y-97823D01*
X9037Y-98678D01*
X9601Y-99515D01*
X10192Y-100334D01*
X10808Y-101134D01*
X11451Y-101913D01*
X12117Y-102671D01*
X12808Y-103407D01*
X13522Y-104121D01*
X14258Y-104812D01*
X15016Y-105479D01*
X15796Y-106121D01*
X16595Y-106737D01*
X17414Y-107328D01*
X18251Y-107893D01*
X19106Y-108430D01*
X19977Y-108939D01*
X20865Y-109420D01*
X21767Y-109873D01*
X22684Y-110296D01*
X23614Y-110690D01*
X24555Y-111054D01*
X25508Y-111388D01*
X26471Y-111690D01*
X27444Y-111962D01*
X28425Y-112202D01*
X29412Y-112411D01*
X30406Y-112588D01*
X31405Y-112733D01*
X32409Y-112847D01*
X33415Y-112927D01*
X34424Y-112976D01*
X35433Y-112992D01*
G54D33*
X128862Y-38976D02*
X128401Y-37863D01*
X127287Y-37402D01*
X85433D02*
X84320Y-37863D01*
X83858Y-38976D01*
X128862Y-59449D02*
Y-38976D01*
X83858Y-59449D02*
Y-38976D01*
X85433Y-37402D02*
X127287D01*
X128862Y124016D02*
X128401Y125129D01*
X127287Y125591D01*
X85433D02*
X84320Y125129D01*
X83858Y124016D01*
X128862Y103543D02*
Y124016D01*
X83858Y103543D02*
Y124016D01*
X85433Y125591D02*
X127287D01*
X128862Y42520D02*
X128401Y43633D01*
X127287Y44094D01*
X85433D02*
X84320Y43633D01*
X83858Y42520D01*
X128862Y22047D02*
Y42520D01*
X83858Y22047D02*
Y42520D01*
X85433Y44094D02*
X127287D01*
X-12870Y42520D02*
X-13332Y43633D01*
X-14445Y44094D01*
X-56299D02*
X-57413Y43633D01*
X-57874Y42520D01*
X-12870Y22047D02*
Y42520D01*
X-57874Y22047D02*
Y42520D01*
X-56299Y44094D02*
X-14445D01*
X-12870Y124016D02*
X-13332Y125129D01*
X-14445Y125591D01*
X-56299D02*
X-57413Y125129D01*
X-57874Y124016D01*
X-12870Y103543D02*
Y124016D01*
X-57874Y103543D02*
Y124016D01*
X-56299Y125591D02*
X-14445D01*
X-12870Y-38976D02*
X-13332Y-37863D01*
X-14445Y-37402D01*
X-56299D02*
X-57413Y-37863D01*
X-57874Y-38976D01*
X-12870Y-59449D02*
Y-38976D01*
X-57874Y-59449D02*
Y-38976D01*
X-56299Y-37402D02*
X-14445D01*
X-83736Y42520D02*
X-84198Y43633D01*
X-85311Y44094D01*
X-127165D02*
X-128279Y43633D01*
X-128740Y42520D01*
X-83736Y22047D02*
Y42520D01*
X-128740Y22047D02*
Y42520D01*
X-127165Y44094D02*
X-85311D01*
X57996Y42520D02*
X57534Y43633D01*
X56421Y44094D01*
X14567D02*
X13453Y43633D01*
X12992Y42520D01*
X57996Y22047D02*
Y42520D01*
X12992Y22047D02*
Y42520D01*
X14567Y44094D02*
X56421D01*
X-83736Y124016D02*
X-84198Y125129D01*
X-85311Y125591D01*
X-127165D02*
X-128279Y125129D01*
X-128740Y124016D01*
X-83736Y103543D02*
Y124016D01*
X-128740Y103543D02*
Y124016D01*
X-127165Y125591D02*
X-85311D01*
X57996Y124016D02*
X57534Y125129D01*
X56421Y125591D01*
X14567D02*
X13453Y125129D01*
X12992Y124016D01*
X57996Y103543D02*
Y124016D01*
X12992Y103543D02*
Y124016D01*
X14567Y125591D02*
X56421D01*
X-83736Y-38976D02*
X-84198Y-37863D01*
X-85311Y-37402D01*
X-127165D02*
X-128279Y-37863D01*
X-128740Y-38976D01*
X-83736Y-59449D02*
Y-38976D01*
X-128740Y-59449D02*
Y-38976D01*
X-127165Y-37402D02*
X-85311D01*
X57996Y-38976D02*
X57534Y-37863D01*
X56421Y-37402D01*
X14567D02*
X13453Y-37863D01*
X12992Y-38976D01*
X57996Y-59449D02*
Y-38976D01*
X12992Y-59449D02*
Y-38976D01*
X14567Y-37402D02*
X56421D01*
G54D50*
X-150394Y144095D02*
X150394D01*
X150394Y-132283D01*
X-150394Y-132283D02*
X150394Y-132283D01*
X-150394Y-132283D02*
Y144095D01*
M02*
