M48
;Layer_Color=9474304
;FILE_FORMAT=2:5
INCH,LZ
;TYPE=PLATED
T1F00S00C0.00787
T2F00S00C0.01200
T3F00S00C0.01250
T4F00S00C0.01968
T5F00S00C0.02953
%
T01
X-0116929Y-0090945
X-0116535Y-0087402
X-0045669
X-0046063Y-0090945
X0024803
X0025197Y-0087402
X0096063
X0095669Y-0090945
Y-0009449
X0096063Y-0005906
X0095669Y0072047
X0096063Y0075591
X0025197
X0024803Y0072047
X-0046063
X-0045669Y0075591
Y-0005906
X-0046063Y-0009449
X0024803
X0025197Y-0005906
X-0116535
X-0116929Y-0009449
Y0072047
X-0116535Y0075591
T02
X-0106693Y-0106693
X-0106233Y-0076477
X-0133858Y-0076772
X-0098819Y-0084646
X-0079528Y-0087795
X-0077953Y-0086221
X-0062992Y-0076772
X-0035367Y-0076477
X-0027953Y-0084646
X-0008661Y-0087795
X-0007087Y-0086221
X0007874Y-0076772
X0035499Y-0076477
X0042913Y-0084646
X0035039Y-0106693
X-0035827
X0062205Y-0087795
X0063779Y-0086221
X007874Y-0076772
X0106365Y-0076477
X0113779Y-0084646
X0133071Y-0087795
X0134646Y-0086221
X0105905Y-0106693
X0084646Y-0069685
X0080709Y-0072835
X0094882Y-0056299
X0101575Y-0050394
X0105905Y-0025197
X0113779Y-000315
X0106365Y0005019
X007874Y0004724
X0080709Y0008661
X0084646Y0011811
X0094882Y0025197
X0101575Y0031102
X0105905Y0056299
X0113779Y0078347
X0133071Y0075197
X0134646Y0076772
X0063779
X0062205Y0075197
Y-0006299
X0063779Y-0004724
X0133071Y-0006299
X0134646Y-0004724
X0042913Y-000315
X0035499Y0005019
X0007874Y0004724
X0009843Y0008661
X001378Y0011811
X0024016Y0025197
X0030709Y0031102
X0035039Y0056299
X0042913Y0078347
X-0007087Y0076772
X-0008661Y0075197
X-0027953Y0078347
X-0035827Y0056299
X-0040157Y0031102
X-004685Y0025197
X-0057087Y0011811
X-0061024Y0008661
X-0062992Y0004724
X-0077953Y-0004724
X-0079528Y-0006299
X-0098819Y-000315
X-0027953
X-0035367Y0005019
X-0035827Y-0025197
X-0040157Y-0050394
X-004685Y-0056299
X-0057087Y-0069685
X-0061024Y-0072835
X0009843
X001378Y-0069685
X0024016Y-0056299
X0030709Y-0050394
X0035039Y-0025197
X-0007087Y-0004724
X-0008661Y-0006299
X-0077953Y0076772
X-0079528Y0075197
X-0098819Y0078347
X-0106693Y0056299
X-0111024Y0031102
X-0117717Y0025197
X-0127953Y0011811
X-013189Y0008661
X-0133858Y0004724
X-0106233Y0005019
X-0106693Y-0025197
X-0111024Y-0050394
X-0117717Y-0056299
X-0127953Y-0069685
X-013189Y-0072835
X-0133858Y0086221
X-013189Y0090158
X-0127953Y0093307
X-0117717Y0106693
X-0111024Y0112598
X-0106233Y0086515
X-0062992Y0086221
X-0061024Y0090158
X-0057087Y0093307
X-004685Y0106693
X-0040157Y0112598
X-0035367Y0086515
X0007874Y0086221
X0009843Y0090158
X001378Y0093307
X0024016Y0106693
X0030709Y0112598
X0035499Y0086515
X007874Y0086221
X0080709Y0090158
X0084646Y0093307
X0094882Y0106693
X0101575Y0112598
X0106365Y0086515
T03
X0108661Y-0050394
Y0031102
X0037795
X-0033071
Y-0050394
X0037795
X-0103937
Y0031102
Y0112598
X-0033071
X0037795
X0108661
T04
X-0137008Y-0089764
X-0137402Y-0087402
X-0137795Y-0085039
Y-0082677
Y-0080315
Y-0077953
X-0137402Y-007559
X-0114567Y-0112205
X-0112205Y-0112598
X-0109843Y-0112992
X-010748
X-0105118
X-0102756
X-0100394Y-0112598
X-0098032Y-0112205
X-007559Y-0089764
X-0075197Y-0087402
X-0074803Y-0085039
Y-0082677
Y-0080315
Y-0077953
X-0075197Y-007559
X-0066535
X-0066929Y-0077953
Y-0080315
Y-0082677
Y-0085039
X-0066535Y-0087402
X-0066142Y-0089764
X-0043701Y-0112205
X-0041339Y-0112598
X-0038976Y-0112992
X-0036614
X-0034252
X-003189
X-0029528Y-0112598
X-0027165Y-0112205
X-0004724Y-0089764
X-0004331Y-0087402
X-0003937Y-0085039
Y-0082677
Y-0080315
Y-0077953
X-0004331Y-007559
X0004331
X0003937Y-0077953
Y-0080315
Y-0082677
Y-0085039
X0004331Y-0087402
X0004724Y-0089764
X0027165Y-0112205
X0029528Y-0112598
X003189Y-0112992
X0034252
X0036614
X0038976
X0041339Y-0112598
X0043701Y-0112205
X0066142Y-0089764
X0066535Y-0087402
X0066929Y-0085039
Y-0082677
Y-0080315
Y-0077953
X0066535Y-007559
X0075197
X0074803Y-0077953
Y-0080315
Y-0082677
Y-0085039
X0075197Y-0087402
X007559Y-0089764
X0098032Y-0112205
X0100394Y-0112598
X0102756Y-0112992
X0105118
X010748
X0109843
X0112205Y-0112598
X0114567Y-0112205
X0137008Y-0089764
X0137402Y-0087402
X0137795Y-0085039
Y-0082677
Y-0080315
Y-0077953
X0137402Y-007559
X0137008Y-0073228
X0114567Y-0037008
X0112205
X0109843
X010748
X0105118
X0102756
X0100394
X0098032
Y-0030709
X0100394Y-0031102
X0102756Y-0031496
X0105118
X010748
X0109843
X0112205Y-0031102
X0114567Y-0030709
X0137008Y-0008268
X0137402Y-0005906
X0137795Y-0003543
Y-0001181
Y0001181
Y0003543
X0137402Y0005906
X0137008Y0008268
X0114567Y0044488
X0112205
X0109843
X010748
X0105118
X0102756
X0100394
X0098032
Y0050787
X0100394Y0050394
X0102756Y005
X0105118
X010748
X0109843
X0112205Y0050394
X0114567Y0050787
X0137008Y0073228
X0137402Y0075591
X0137795Y0077953
Y0080315
X0074803
Y0077953
X0075197Y0075591
X007559Y0073228
X0066142
X0066535Y0075591
X0066929Y0077953
Y0080315
X0066142Y0008268
X0066535Y0005906
X0066929Y0003543
Y0001181
Y-0001181
Y-0003543
X0066535Y-0005906
X0066142Y-0008268
X007559
X0075197Y-0005906
X0074803Y-0003543
Y-0001181
Y0001181
Y0003543
X0075197Y0005906
X007559Y0008268
Y-0073228
X0066142
X0043701Y-0037008
X0041339
X0038976
X0036614
X0034252
X003189
X0029528
X0027165
Y-0030709
X0029528Y-0031102
X003189Y-0031496
X0034252
X0036614
X0038976
X0041339Y-0031102
X0043701Y-0030709
X0004724Y-0008268
X0004331Y-0005906
X0003937Y-0003543
Y-0001181
Y0001181
Y0003543
X0004331Y0005906
X0004724Y0008268
X-0004724
X-0004331Y0005906
X-0003937Y0003543
Y0001181
Y-0001181
Y-0003543
X-0004331Y-0005906
X-0004724Y-0008268
X-0027165Y-0030709
X-0029528Y-0031102
X-003189Y-0031496
X-0034252
X-0036614
X-0038976
X-0041339Y-0031102
X-0043701Y-0030709
Y-0037008
X-0041339
X-0038976
X-0036614
X-0034252
X-003189
X-0029528
X-0027165
X-0004724Y-0073228
X0004724
X-0066142
X-007559
X-0098032Y-0037008
Y-0030709
X-007559Y-0008268
X-0075197Y-0005906
X-0074803Y-0003543
Y-0001181
Y0001181
Y0003543
X-0075197Y0005906
X-007559Y0008268
X-0066142
X-0066535Y0005906
X-0066929Y0003543
Y0001181
Y-0001181
Y-0003543
X-0066535Y-0005906
X-0066142Y-0008268
X-0043701Y0044488
X-0041339
X-0038976
X-0036614
X-0034252
X-003189
X-0029528
X-0027165
Y0050787
X-0029528Y0050394
X-003189Y005
X-0034252
X-0036614
X-0038976
X-0041339Y0050394
X-0043701Y0050787
X-0066142Y0073228
X-0066535Y0075591
X-0066929Y0077953
Y0080315
X-0074803
Y0077953
X-0075197Y0075591
X-007559Y0073228
X-0098032Y0050787
Y0044488
X-0004724Y0073228
X-0004331Y0075591
X-0003937Y0077953
Y0080315
X0003937
Y0077953
X0004331Y0075591
X0004724Y0073228
X0027165Y0050787
X0029528Y0050394
X003189Y005
X0034252
X0036614
X0038976
X0041339Y0050394
X0043701Y0050787
Y0044488
X0041339
X0038976
X0036614
X0034252
X003189
X0029528
X0027165
X-0100394
X-0102756
X-0105118
X-010748
X-0109843
X-0112205
X-0114567
Y0050787
X-0112205Y0050394
X-0109843Y005
X-010748
X-0105118
X-0102756
X-0100394Y0050394
X-0137008Y0073228
X-0137402Y0075591
X-0137795Y0077953
Y0080315
X-0137008Y0008268
X-0137402Y0005906
X-0137795Y0003543
Y0001181
Y-0001181
Y-0003543
X-0137402Y-0005906
X-0137008Y-0008268
X-0114567Y-0030709
X-0112205Y-0031102
X-0109843Y-0031496
X-010748
X-0105118
X-0102756
X-0100394Y-0031102
Y-0037008
X-0102756
X-0105118
X-010748
X-0109843
X-0112205
X-0114567
X-0137008Y-0073228
X-0137795Y0082677
Y0085039
X-0137402Y0087402
X-0137008Y0089764
X-0114567Y0125984
X-0112205
X-0109843
X-010748
X-0105118
X-0102756
X-0100394
X-0098032
X-0043701
X-0041339
X-0038976
X-0036614
X-0034252
X-003189
X-0029528
X-0027165
X0027165
X0029528
X003189
X0034252
X0036614
X0038976
X0041339
X0043701
X0004724Y0089764
X0004331Y0087402
X0003937Y0085039
Y0082677
X-0003937
Y0085039
X-0004331Y0087402
X-0004724Y0089764
X-0066142
X-0066535Y0087402
X-0066929Y0085039
Y0082677
X-0074803
Y0085039
X-0075197Y0087402
X-007559Y0089764
X0066142
X0066535Y0087402
X0066929Y0085039
Y0082677
X0074803
Y0085039
X0075197Y0087402
X007559Y0089764
X0098032Y0125984
X0100394
X0102756
X0105118
X010748
X0109843
X0112205
X0114567
X0137008Y0089764
X0137402Y0087402
X0137795Y0085039
Y0082677
T05
X-0122835Y-0103543
X-0129921Y-0092913
X-0082677
X-0089764Y-0103543
X-0051968
X-0059055Y-0092913
X-0011811
X-0018898Y-0103543
X0018898
X0011811Y-0092913
X0051968Y-0103543
X0059055Y-0092913
X0082677
X0089764Y-0103543
X0122835
X0129921Y-0092913
X0131488Y-0070465
X0124417Y-0063394
X0122835Y-0022047
X0129921Y-0011417
X0131488Y0011031
X0124417Y0018102
X0122835Y0059449
X0129921Y0070079
X0082677
X0089764Y0059449
X0059055Y0070079
X0060622Y0011031
X0059055Y-0011417
X0082677
X0089764Y-0022047
X0060622Y-0070465
X0053551Y-0063394
X0051968Y-0022047
X0018898
X0011811Y-0011417
X-0011811
X-0018898Y-0022047
X-0051968
X-0059055Y-0011417
X-0082677
X-0089764Y-0022047
X-008111Y0011031
X-0088181Y0018102
X-0089764Y0059449
X-0082677Y0070079
X-0059055
X-0051968Y0059449
X-0018898
X-0011811Y0070079
X0011811
X0018898Y0059449
X0051968
X0053551Y0018102
X-0010244Y0011031
X-0017315Y0018102
Y-0063394
X-0010244Y-0070465
X-008111
X-0088181Y-0063394
X-0122835Y-0022047
X-0129921Y-0011417
X-0122835Y0059449
X-0129921Y0070079
X-008111Y0092528
X-0088181Y0099598
X-0017315
X-0010244Y0092528
X0053551Y0099598
X0060622Y0092528
X0131488
X0124417Y0099598
M30
