G04*
G04 #@! TF.GenerationSoftware,Altium Limited,Altium Designer,20.1.11 (218)*
G04*
G04 Layer_Color=128*
%FSLAX25Y25*%
%MOIN*%
G70*
G04*
G04 #@! TF.SameCoordinates,4A8DF08C-7CCE-415C-BD08-992622932B33*
G04*
G04*
G04 #@! TF.FilePolarity,Positive*
G04*
G01*
G75*
%ADD15R,0.01575X0.01968*%
%ADD16R,0.03150X0.03150*%
%ADD30O,0.02165X0.04528*%
G54D15*
X120079Y-82284D02*
D03*
X123228D02*
D03*
X120079Y80709D02*
D03*
X123228D02*
D03*
X120079Y-787D02*
D03*
X123228D02*
D03*
X-21654D02*
D03*
X-18504D02*
D03*
X-21654Y80709D02*
D03*
X-18504D02*
D03*
X-21654Y-82284D02*
D03*
X-18504D02*
D03*
X-92520Y-787D02*
D03*
X-89370D02*
D03*
X49213D02*
D03*
X52362D02*
D03*
X-92520Y80709D02*
D03*
X-89370D02*
D03*
X49213D02*
D03*
X52362D02*
D03*
X-92520Y-82284D02*
D03*
X-89370D02*
D03*
X49213D02*
D03*
X52362D02*
D03*
G54D16*
X125394Y-87008D02*
D03*
X119488D02*
D03*
X125394Y75984D02*
D03*
X119488D02*
D03*
X125394Y-5512D02*
D03*
X119488D02*
D03*
X-16339D02*
D03*
X-22244D02*
D03*
X-16339Y75984D02*
D03*
X-22244D02*
D03*
X-16339Y-87008D02*
D03*
X-22244D02*
D03*
X-87205Y-5512D02*
D03*
X-93110D02*
D03*
X54527D02*
D03*
X48622D02*
D03*
X-87205Y75984D02*
D03*
X-93110D02*
D03*
X54527D02*
D03*
X48622D02*
D03*
X-87205Y-87008D02*
D03*
X-93110D02*
D03*
X54527D02*
D03*
X48622D02*
D03*
G54D30*
X113799Y-92027D02*
D03*
X108799D02*
D03*
X103799D02*
D03*
X98799D02*
D03*
X113799Y-70965D02*
D03*
X108799D02*
D03*
X103799D02*
D03*
X98799D02*
D03*
X113799Y70965D02*
D03*
X108799D02*
D03*
X103799D02*
D03*
X98799D02*
D03*
X113799Y92028D02*
D03*
X108799D02*
D03*
X103799D02*
D03*
X98799D02*
D03*
X113799Y-10531D02*
D03*
X108799D02*
D03*
X103799D02*
D03*
X98799D02*
D03*
X113799Y10531D02*
D03*
X108799D02*
D03*
X103799D02*
D03*
X98799D02*
D03*
X-27933Y-10531D02*
D03*
X-32933D02*
D03*
X-37933D02*
D03*
X-42933D02*
D03*
X-27933Y10531D02*
D03*
X-32933D02*
D03*
X-37933D02*
D03*
X-42933D02*
D03*
X-27933Y70965D02*
D03*
X-32933D02*
D03*
X-37933D02*
D03*
X-42933D02*
D03*
X-27933Y92028D02*
D03*
X-32933D02*
D03*
X-37933D02*
D03*
X-42933D02*
D03*
X-27933Y-92027D02*
D03*
X-32933D02*
D03*
X-37933D02*
D03*
X-42933D02*
D03*
X-27933Y-70965D02*
D03*
X-32933D02*
D03*
X-37933D02*
D03*
X-42933D02*
D03*
X-98799Y-10531D02*
D03*
X-103799D02*
D03*
X-108799D02*
D03*
X-113799D02*
D03*
X-98799Y10531D02*
D03*
X-103799D02*
D03*
X-108799D02*
D03*
X-113799D02*
D03*
X42933Y-10531D02*
D03*
X37933D02*
D03*
X32933D02*
D03*
X27933D02*
D03*
X42933Y10531D02*
D03*
X37933D02*
D03*
X32933D02*
D03*
X27933D02*
D03*
X-98799Y70965D02*
D03*
X-103799D02*
D03*
X-108799D02*
D03*
X-113799D02*
D03*
X-98799Y92028D02*
D03*
X-103799D02*
D03*
X-108799D02*
D03*
X-113799D02*
D03*
X42933Y70965D02*
D03*
X37933D02*
D03*
X32933D02*
D03*
X27933D02*
D03*
X42933Y92028D02*
D03*
X37933D02*
D03*
X32933D02*
D03*
X27933D02*
D03*
X-98799Y-92027D02*
D03*
X-103799D02*
D03*
X-108799D02*
D03*
X-113799D02*
D03*
X-98799Y-70965D02*
D03*
X-103799D02*
D03*
X-108799D02*
D03*
X-113799D02*
D03*
X42933Y-92027D02*
D03*
X37933D02*
D03*
X32933D02*
D03*
X27933D02*
D03*
X42933Y-70965D02*
D03*
X37933D02*
D03*
X32933D02*
D03*
X27933D02*
D03*
M02*
